<?xml version="1.0" encoding="UTF-8"?>
<svg id="Capa_10" data-name="Capa 10" xmlns="http://www.w3.org/2000/svg" viewBox="0 0 200 200">
  <defs>
    <style>
      .cls-1 {
        fill: #1d1d1d;
        stroke-width: 0px;
      }
    </style>
  </defs>
  <g>
    <path class="cls-1" d="M77.51,102.24s.06.05.08.05c-.05-.06-.07-.07-.08-.05Z"/>
    <path class="cls-1" d="M82.6,69.54l-.23.33c.16-.21.22-.29.23-.33Z"/>
    <path class="cls-1" d="M91.22,118.07s-.03-.01-.05-.02c.25.21.59.5,1.15.96l-1.1-.94Z"/>
    <path class="cls-1" d="M148.96,73.33l-.3-.37c.13.17.22.28.3.37Z"/>
    <path class="cls-1" d="M109.65,59.36c.14-.02.37-.04.6-.05-.29,0-.52.01-.6.05Z"/>
    <path class="cls-1" d="M99.97,125.37l-.54-.33s.18.16.54.33Z"/>
    <path class="cls-1" d="M121.46,124.47s-.02,0-.06,0c-.03.02,0,.01.06,0Z"/>
    <path class="cls-1" d="M113.19,126.5c-.18.03-.39.08-.6.12.26-.04.58-.08.6-.12Z"/>
    <path class="cls-1" d="M112.3,126.67c.09-.01.19-.03.29-.05-.16.03-.29.04-.29.05Z"/>
    <path class="cls-1" d="M101.8,91.31c-.44.4-.82.75-1.23,1.11.44-.39.87-.75,1.23-1.11Z"/>
    <path class="cls-1" d="M121.35,117.65h.14c-.12-.02-.15-.01-.14,0Z"/>
    <path class="cls-1" d="M101.66,92.29l-.36.26c.14-.09.25-.17.36-.26Z"/>
    <path class="cls-1" d="M90.22,118.97c-.53-.35-1.46-1.24-1.5-1.18.52.42,1.2,1.07,1.5,1.18Z"/>
    <path class="cls-1" d="M106.66,115.29l-.39-.18c.18.09.3.14.39.18Z"/>
    <path class="cls-1" d="M101.66,92.29l.4-.3s-.09.04-.14.07c-.08.08-.17.16-.26.24Z"/>
    <path class="cls-1" d="M110.34,74.99s-.01,0-.02,0c-.04,0-.08,0-.12,0h.14Z"/>
    <path class="cls-1" d="M113.49,76.13c-.22-.1-.44-.19-.68-.28.35.16.54.24.68.28Z"/>
    <path class="cls-1" d="M100.58,92.42c-.25.22-.51.45-.76.7.27-.25.52-.48.76-.7Z"/>
    <path class="cls-1" d="M108.78,98.63c.13.02.25.03.36.05-.16-.02-.28-.04-.36-.05Z"/>
    <path class="cls-1" d="M106.77,59.4c-.09,0-.22,0-.33,0-.04.02-.01.03.33,0Z"/>
    <polygon class="cls-1" points="135.22 59.51 135.23 59.52 135.23 59.52 135.22 59.51"/>
    <path class="cls-1" d="M133.69,59.19c.47.13,1.15.28,1.53.33-.47-.13-.92-.26-1.53-.33Z"/>
    <path class="cls-1" d="M138.36,60.73c-.06-.03-.1-.05-.17-.08.06.03.11.05.17.08Z"/>
    <path class="cls-1" d="M107.84,57.26s0,0,0,0c0,0,.02,0,.02,0h-.02Z"/>
    <path class="cls-1" d="M113.92,57.17c.11.02.26.03.42.04-.1-.02-.24-.03-.42-.04Z"/>
    <path class="cls-1" d="M150.01,70.72s0,0,0,0c0,.01.01.01.02.02,0,0,0-.01-.01-.02Z"/>
    <path class="cls-1" d="M134.72,119.63c2.75-1.22,5.7-3.03,8.32-5.23,2.63-2.19,4.91-4.74,6.65-7.12.63-1.13,1.65-2.68,2.52-4.34l.28-.07.64-1.43c.34-.54-.5,1.1.07.12l.15-.59c.17-.05,1.61-3.7.74-1.2l.59-1.41.5-1.45c.36-.96.58-1.96.85-2.94.32-1.32,0-.81.34-2.26.12-.29-.06.54.03.43.28-1.09.34-1.99.41-2.75.07-.76.06-1.41.04-2.04-.07-1.27-.13-2.49-.36-4.62l.08.36c-.12-.72-.4-2.08-.45-2.09-.08.58.3.73.36,2.05-.17-.09-.34-1.59-.47-1.48-.15-.99-.41-1.53-.7-2.35-.38-1.46-1.5-3.28-2.01-4.25-.44-.56-1.03-1.11-1.95-2.28-.55-.92.26.11-.6-1.05l-.22-.12c-.73-.93-.59-.8-.53-.8-.79-.98-.76-.73-1.73-1.99l.64.62c-.78-.9-1.09-1.26-2.17-2.51.07-.01.51.48.82.86-.48-.78-1.08-1.11-1.4-1.47.07.13.83.99.38.64-.54-.62-1.31-1.17-1.65-1.67l.71.57c-1.3-1.15-.73-.58-2.2-1.92.09.06.06.01.11.02-1.04-.72-2.33-1.8-4-2.68l.33.15c-.68-.34-1.11-.41-1.47-.6.94.52.66.42.7.54-1.2-.76-2.01-.75-4.13-1.51.05-.05.6.05,1.17.31.79.11.94-.02,2.27.47-.82-.32-1.79-.65-1.56-.64l-.31.05c-.5-.17-.89-.3-1.27-.43-.24.03.96.48-.22.18-1.32-.33-.65-.36-.88-.35-1.83-.39-.79-.03-2.53-.46.18.02.53.06.67.11-1.25-.34-3.11-.51-3.45-.75.19-.02.24-.07.72.02l-.02.03c1.42.06-1.17-.13-.71-.24.08.11-1.7-.13-2.51-.22l.24.14c-2.71.11.16-.23-2.49-.4-1.68-.04.63.08-.4.09-1.13-.1-1.55-.23-3.21-.27-.46-.07-1.4-.17-1.48-.31-1.01,0-3.07-.16-3.65-.03,1.73.14,1.73-.1,3.74.14l-.57.11c-1.4-.06-3.19-.04-4.15-.09.2.03.28.06.16.09-1.99.03-2.56.16-4.5.15-.26-.11.88-.12,1.7-.13-1.25-.08-1.31,0-3.24.01-.11-.1,1.3-.03,1.53-.13l-2.15.09s0-.01,0-.02c-.3.18-1.64.04-2.95.16-3.1.18-3.57.45-5.27.76-.47,0-.61-.02-.42-.08.77-.01.63-.05.89-.13-1.05.12-2.33.13-1.75-.03-1.68.3.62,0-.4.2-.77.11-1.54.25-2.3.43.29.02,1.1-.14-.07.19-.98.27-1.47.37-2.73.84.17-.11-.45.02.51-.32-.63.18-1.58.57-1.89.82.69-.26.14-.01-.43.3-.57.31-1.15.68-.65.47-.44.21-.87.43-1.3.66.28-.17.29-.24.72-.47-.43.09-1.01.64-1.42.94-.45.25-1.52,1.03-1.64,1.07-.34.31-1.23,1-1.42,1.09-.5.47.02.1-.11.26-.58.51-1.13,1.04-1.69,1.58-.14.04-.42.03-.19-.24-.56.69-.07.37-.98,1.34.4-.67-1.24,1.25-.64.3-.6.49-1.96,2.22-2.59,3.24-.33.67.79-1.04.85-.89-.98,1.37-1.36,2.19-1.7,2.89-.32.71-.61,1.31-1.18,2.39l.32-.55c-.64,1.39-.56,1.24-.84,2.08.05-.45-1.11,1.42-1.81,3.86,0,.22.55-1.31.54-.88l-.47,1.6c-.04.11-.02-.07.03-.28-.36,1.45-.84,2.66-.76,3.12l-.45,1.47.18-.58c.02.21-.15,1.89-.15,2.23-.04,1.71-.09,2.33-.17,3.27.05-.3.17-1.04.22.3-.27,0,.09,2.82,0,2.79.05.54.14,1.51.25,1.56l-.16-.07c.21.1.54,2.05,1.01,3.5-.36-.25.49,1.59.51,2.3.24.22,1.08,2.49,1.37,2.65.51,1.05.33,1.01.41,1.31l.32.45c.09.29.45.89.84,1.58.42.67.9,1.41,1.28,1.95l.88.86.23.39c.15.13.84.87.47.36l.42.5c.17-.08.65.66,1.62,1.53.19.23.11.21-.11.02.46.46.19.33.41.62-.3-.35,1.91,1.39.7.12-.04-.13.73.53,1.18.98l.18.38.68.38c.76.64,1.01.99,1.61,1.53-.63-.53-1.59-.96.03.42-.86-.71-1.34-1.01-1.79-1.36.33.3.48.45-.08.05,1.29,1.06.48.3,1.74,1.35-.16.05.16.39,1.22,1.35l-.75-.77s.11.06.18.1c-.3-.27-.37-.37-.4-.47.25.21,1.57,1.09,1.72,1.33-1.12-1.23,2.32,1.71,1.6.93.17.09,1.06.81,1.11.94-1.14-.78.7.78.47.71.43.29-.78-.76-.21-.37.65.5,1.08.94,1.42,1.25l-.29-.19.99.81c.21.07-.93-.82.04-.16.23.21,1.23.84,1.17.87-.52-.23-.26.11-1.11-.45.67.5,2.98,1.89,2.12,1.2.28.18.58.34.87.51-.53-.36-1.96-1.37-.23-.35l-.03.02c.42.2.85.39,1.28.57l.51.34s.21.02.68.24c.1.1.56.29.5.33,1.41.55,1.32.42,1.52.44.81.23,1.1.35.7.32,1.09.39,3.09.71,3.86.87,1.54.1-.31-.05.59-.06.33.08.81.15,1.39.21.58.05,1.26.03,1.97.02,1.42-.09,2.98-.3,4.21-.57-.71-.08.67-.16,1.07-.45-.51.22,2.33-.44.23.19l1.29-.37c.92-.12-2.12.66-.74.46.73-.19,1.32-.41,1.92-.68.3-.13.62-.25.96-.38.34-.14.7-.29,1.12-.43-.49.37,1.24-.56.9-.25-.31.22-.78.36-1.24.57l.3-.09c3.06-1.28.81-.55,2.33-1.36,1.76-.96,1.45-.64,1.59-.63.28-.13,1.14-.69,1.57-1-1,.72-1.99,1.09-1.55.72.42-.16,1.06-.53,1.64-.93.56-.42,1.07-.84,1.27-1.03-1.22.75-1.64,1-2.04,1.25-.41.23-.78.5-2.01,1.03-.3.21-.15.37-1.64.98.88-.5-.1-.05-.37.04.32-.03-1,.47-1.45.68-.44.09.81-.54-.7,0l-.22.3c-.61.17.2-.23-1.06.24.65-.34-.26-.09,1.45-.71-1.05.26-1.82.56-2.55.79-.72.27-1.4.51-2.22.7.17-.05.18-.08.34-.13-.34.13-.99.26-1.48.32-1.11.1.86-.22.56-.24l-1.78.25s-.05-.01-.05-.01c-.47.06-.92.12-1.08.07.53-.11.73-.2,1.08-.28-.62.09-1.24.21-1.86.27.2-.07-1.55-.11-.22-.17l-1.38.02-1.38-.07-.22-.16c-.66-.06-.68-.03.1.08-.46-.08-1.52-.12-2.37-.27-.86-.15-1.53-.31-1.25-.39-1.05-.25-1.77-.43-2.51-.74-.75-.26-1.54-.6-2.71-1.2.92.42.43.11-.05-.19-.47-.31-.93-.6,0-.1-1.05-.67-1.35-.69-2.19-1.21-.73-.58-.31-.45.55.05-.34-.19-.67-.4-1.01-.6h.03s-.88-.54-.88-.54c-.82-.71-.1-.25-.97-.94l-.27-.05-.55-.53c.19.22-.35-.17-.99-.68h.03s-.78-.62-.78-.62c.8.57-.68-.6-.27-.38-.65-.55-.66-.56-1.85-1.53l.15.24c-1.57-1.23.02-.15-1.21-1.21v.14c-1.64-1.64-3.01-2.53-4.15-3.82.71.67.62.41.59.42-1.09-.99-2.71-2.76-3.72-3.89-.22-.53-.29-.64-1.1-1.96-.64-.92-.7-1.08-.98-1.34-.52-.96-1.48-2.77-1.4-2.87-.17-.2-.37-.91-.66-1.44v-.13s-.07.12-.07.12c-.47-1.88-1.18-3.07-1.38-5.04l.1.32c-.07-.27-.15-.53-.2-.8.02-.14.1.19.17.22-.21-1.25-.4-2.51-.45-3.77l-.02.75c-.07-.8-.21-1.33-.16-2.26.18,1.52-.02-1.27.14-1.51l.02.82q.01-1.11-.09-1.03c.06-1.45.23-.98.27-2.31-.03.31-.08.63-.11.94-.08.27-.11-.41-.03-1.05.03-.15.13-.59.09-.11.09-1.14.48-2.81.57-3.31.19-.59.2-.38.15-.05.25-1.19.34-1.45.43-1.71.08-.26.16-.52.52-1.7l.04.06c.07-.27.14-.54.23-.81l.56-1.06c-.08.12-.15.24-.23.37.3-.74.47-1.22.91-2.04l-.09.37c.98-2.04,1.34-2.24,2.39-4.1.1-.11-.07.18-.15.33.5-.86.75-1.15,1-1.43.25-.28.49-.57,1.06-1.39-.05.11.11-.03.08.04.17-.25.35-.49.54-.73l.04.13.36-.67c.15-.11.3-.23.46-.33l.2-.29c.81-.55,1.69-1.62,2.8-2.34l-.27.03c1.17-1.19,2.75-2.3,4.52-3.16,1.77-.88,3.71-1.44,5.66-1.89l-.05.13c.53-.15,1.06-.29,1.61-.41.9-.04-.52.17-.23.19,1.75-.3.7-.29,2.78-.53,1.08-.01-.37.11-.86.21,1.93-.26,4.87-.48,6.28-.47.03-.02.12-.04.04-.04,1.32-.11,3.07-.11,4.52-.13-.04.05-.4.07-.76.08.52,0,1.24.03,1.69-.03l-.55.1c1.12,0,3.27-.07,3.52.05-.13-.05-.08-.13.89-.11.53.18,2.63-.01,4.18.16-.19.03-1.32,0-1,0,.77.08,1.47.03,2.16.02l-.21.06c1.2.03,2.41.08,3.61.14.52.2,3.38.29,3.12.4,1.27.16-1.05-.21.55-.03.42.12,1.45.17,1.36.27h-.17s1.11.16,1.11.16h-.71c.96.12,1.66.16,1.73.08.88.24,2.15.5,2.51.72l-.33-.07c2.47.65,3.83,1.63,5.6,2.4.11.09.09.1-.17-.05.43.26.87.52,1.28.81l-.35-.13c.72.42,1.42.9,2.09,1.41l-.06.02c1.28,1.08,3.14,3.01,4.59,4.75l-.24-.24c1.64,1.83,1.47,1.88,2.66,3.25-.05-.04-.09-.08-.14-.13l.99,1.27-.26-.25c.86.86,1.79,2.81,1.48,2.16.41.51,1.02,1.44,1.16,1.57.74,1.48.12.4.49,1.34.41,1.1.6,1.26.89,2.86l-.06-.02c.14.74.26,1.21.34,2.28l-.05-.32c.23,1.75-.09,2.19.09,3.59-.09.75-.26,2.16-.35,2.08-.07,1.11-.3,2.08-.45,3.06-.25.96-.42,1.94-.79,2.99-.31.27-.12.47-.7,1.68l.13-.05c-1.12,2.95-3.11,6.01-5.19,8.76h-.14s-.33.63-.33.63c-2.34,2.91-6.06,6.01-8.6,7.53-.8.53-2.01,1.41-3.43,2l.14-.08c-2.38,1.22-5.09,2.21-7.84,2.14.17-.04-.1-.07.2-.1-.65.13-1.61-.06-2.2-.16.23.06.46.11.69.17-.8.02-1.94-.3-2.32-.48-.43-.07-.86-.14-1.3-.23-.08-.03-.21-.09-.22-.11h-.24s-.64-.35-.64-.35c-.32-.07-2.04-.59-2.62-.65-.11-.08-1.31-.52-.37-.23-1.57-.54-3.14-1.08-4.67-1.67l.71.31c.06.13-1.37-.32-2.06-.64.97.28.13-.11-.24-.33-.64-.19.51.29.16.22-.81-.24-2.46-.9-2.85-1.13l.47.16c-1.06-.42-1.45-.81-2.46-1.29-.92-.39-1.54-.8-1.44-.55-1.27-.69-.42-.38-.82-.63-.64-.24-2.28-1.4-2.42-1.63-.4-.11-1.14-.71-1.82-1.3-.64-.61-1.24-1.18-1.41-1.22l-.72-.91c-.07.02-.31-.07-.94-.77-.53-.71-.29-.62-.41-.86l-.51-.34c-.66-1.05-1.25-2.22-1.48-3.45-.24-1.22-.11-2.65.09-4.21.41-3.14.83-6.36,1.29-9.26.29-2.61.62-5.77,2.52-7.53-.06.07-.12.15-.18.23.59-.62,1.3-1.15,2.09-1.63-.58.33-1.13.69-1.62,1.1.41-.4.75-.72,1.24-1.04,1.27-.8,3.03-1.55,4.87-2.22,1.82-.65,3.71-1.06,5.44-.86,1.15.07,1.53.29,1.86.46.34.2.65.36,1.75.82-.19-.08-.27-.08-.44-.13,1.15.52,2.03,1.04,2.91,1.57.88.54,1.81,1.1,2.92,1.81-.37,0,1.34,1.03,1.06.99l.22.06c.4.41,1.22,1.36,1.03,1.28.26.24.48.5.7.76l-.04.13c.34.56.77,1.52.89,2.52.15.99.03,1.95-.1,2.31-.09,1.75-.77,4.12-2.03,6.25-1.23,2.15-3.14,3.88-5.17,4.52-.54.28-1.79.58-2.83.62-.38-.04-.74-.05-1.11-.11-1.06.02-2.26.02-3.29-.21,0-.01.05-.02.13-.01-1.14-.14-2.23-.42-3.35-.49-1.28-.24-2.58-.47-2.16-.52-.08.09-.78-.02-1.49-.1-.35-.05-.7-.1-.97-.12-.26-.03-.44-.05-.44-.05,0,0-.29-.02-.79-.02-.5,0-1.23.01-2.02-.05-.8-.06-1.6-.23-2.17-.74-.58-.48-1-1.46-1.08-2.86-.09-1.36.12-3.09.44-4.8.17-.82.42-1.6.78-2.17.38-.58.78-.9,1.49-1.15.71-.24,1.69-.35,2.79-.42,1.07-.08,2.17-.17,3.27-.25,1.11-.09,2.23-.17,3.36-.26.57-.04,1.14-.09,1.71-.14.59-.05,1.1-.07,1.46-.03.37.04.51.13.68.26.15.12.29.35.39.7.22.71.2,1.78.05,2.82-.3,2.19-.86,4.45-2,5.5-.57.52-1.17.75-2.13.78-.92.03-2.14-.11-3.26-.18-1.13-.08-2.25-.16-3.35-.23-.53-.04-1.05-.08-1.58-.11-.43-.06-.4-.06-.62-.22-.19-.16-.43-.49-.59-.81-.17-.33-.29-.68-.37-1.05-.13-.74-.07-1.5.17-2.15.25-.64.65-1.16,1.16-1.48.52-.34,1.17-.51,1.78-.52,1.24-.04,2.25.67,2.57,1.46.15.36.14.7.01,1.05-.14.35-.42.71-.74,1.03-.27.39-1.46,1.36-.92,1.11-.91.73-1.47,1.06-1.57,1.31,1.29-1.14-.21.5,1.09-.49-.26.22-.51.46-.74.72-.12.18.98-1.02.88-.74l.11-.32c.66-.48,1.03-.71,1.28-.84.26-.26.43-.52.66-.86.2-.34.51-.73.63-1.42,0,.13-.03.26-.05.39.12-.57.08-.75.11-.82.02-.07.07-.02.06-.15.02.09.04.18.04.27,0-.35-.1-.71-.27-1.05.21.38.39.91.39,1.27,0,.36,0,.54.05.17-.05-1.6.06.4-.13-.76-.25-.69-.13-.53-.05-.53-.21-.42-.53-.79-.89-1.09.11-.05.67.67.33.19-.45-.41-1-.7-1.58-.85-.12-.17-.62-.27-1.18-.26-.56,0-1.15.14-1.58.16,1.27-.37-.13-.05.05-.17-1.07.3-2.02,1.03-2.57,1.99-.21.25.43-.77.16-.34-.41.49-.47.93-.58,1.24-.08.12-.26.73-.31,1.3-.06.57-.02,1.11-.1,1.07.11,1.16.33,1.36.43,1.55.14.18.2.37.79,1.26.06.14-.23-.18-.4-.48-.18-.29-.3-.52-.11-.08.38.63.9,1.25,1.67,1.52-.19-.04-.56,0-1.17-.67.26.3.57.56.94.74.37.18.74.24,1.08.29.65.08,1.26.16,1.85.23,1.18.16,2.27.3,3.34.45,1.08.13,2.1.33,3.36.31,1.22,0,2.77-.47,3.79-1.65.66-.58-.33.54-.89.92.97-.67,1.52-1.48,1.95-2.18.42-.72.7-1.38.94-2.02.24-.64.43-1.28.59-1.95.16-.67.31-1.38.38-2.28l-.08-.07c.14-1.21.25-2.62-.55-4.16-.4-.77-1.17-1.43-2.04-1.74-.88-.31-1.69-.29-2.37-.27-2.61.18-5.25.41-7.83.56h.62c-.7.15-1.84.25-2.69.36-.15-.02.63-.27-.94-.03.34-.02.99-.06.8,0-.57.04-1.25.09-2.03.28-.77.18-1.72.55-2.51,1.27-.8.71-1.36,1.66-1.71,2.63-.36.97-.55,1.96-.7,2.93-.27,1.92-.58,4.06.04,6.37.32,1.13.99,2.34,2.04,3.12,1.03.82,2.28,1.13,3.3,1.24,1.42.14,2.65,0,3.78.09,1.16.06,2.36.22,3.58.43,2.44.4,4.99.99,7.75,1.06,2.73.08,5.79-.64,8.04-2.47,2.25-1.78,3.71-4.16,4.68-6.54-.63,1.45-.54.75-.04-.32.76-1.44,1.12-2.85,1.27-4.31.14-1.46.1-2.97-.28-4.75-.47-1.59-1.41-3.01-2.45-4.09-1.04-1.1-2.17-1.95-3.26-2.73-2.14-1.48-4.33-3.09-7.15-3.91l-.07-.13c-.83-.3-1.08-.3-2.01-.44l.03-.02c-1.11-.2-2.37-.15-3.44.03-1.07.18-1.97.45-2.55.61l-.04.13c-1.15.4-.64.11-1.77.62v-.07c-.42.21-.84.43-1.26.66.02-.12-.75.21-1.64.68-.89.46-1.87,1.13-2.3,1.41-.65.51-1.59,1.33-2.37,2.47-.8,1.14-1.32,2.51-1.66,3.69-.11.21-.35,1.05-.53,2.04-.19,1-.34,2.11-.48,2.98-.21,1.71-.46,3.78-.72,5.97-.13,1.1-.27,2.23-.41,3.36-.13,1.16-.22,2.42-.05,3.7l.12-.11c.06.44.15.88.27,1.31-.03-.01,0,.17-.07-.02.06.52.33,1.25.68,1.92.35.67.76,1.28,1,1.72-.25-.59-.46-.74-.81-1.39-.4-.98.1-.08.79,1.1h-.04c.19.24.39.49.59.72-.02.15.45.85.44.98,1.27,1.55,2.54,2.66,3.84,3.71,1.31,1.04,2.72,1.96,4.43,3-.21-.06.42.3,1,.63.59.31,1.14.61.73.52,2.17,1.02-.28-.32.76.06.6.29,1.25.54,1.33.66-.3-.09.44.34-.06.13l1.46.63c.13.08-.2-.04-.36-.1,3.01,1.19,5.27,2.22,8.02,3.04.22,0-1.07-.38-.85-.38,2.78.78,2.34.93,4.96,1.66l-.57-.07c.86.19,1.24.24,2.66.68.22.18-1.25-.22-1.93-.38.94.33,3.51.87,2.75.58,1.22.21,1.67.36,2.35.46.02-.02-1.17-.21-.43-.18.85.13,1.97.21,3.14.11,1.16-.09,2.34-.33,3.34-.61-.01.03.14.04-.03.1,1.55-.63,1.48-.31,3.55-1.2Z"/>
    <path class="cls-1" d="M107.05,57.27h.79s.03-.07.4-.11l-1.19.11Z"/>
    <path class="cls-1" d="M143.51,63.87c.08.06.17.11.24.16-.15-.12-.21-.15-.24-.16Z"/>
    <path class="cls-1" d="M149.92,70.47c-.43-.49-.09-.02.09.25.03,0,.04-.03-.09-.25Z"/>
    <path class="cls-1" d="M86.74,63.08c.1-.09.16-.16.13-.16-.14.13-.16.17-.13.16Z"/>
    <path class="cls-1" d="M85.32,114.76c-.05-.05-.1-.1-.16-.17.03.04.08.1.16.17Z"/>
    <path class="cls-1" d="M83.09,112.38c-.11-.11-.26-.26-.48-.46.2.22.35.36.48.46Z"/>
    <path class="cls-1" d="M100.09,57.98c.22-.03.43-.05.61-.1-.34.03-.5.07-.61.1Z"/>
    <path class="cls-1" d="M82.13,111.44l-.55-.62s-.02,0-.03,0l.57.61Z"/>
    <path class="cls-1" d="M86.08,115.46c-.24-.22-.56-.5-.76-.7.28.3.52.51.76.7Z"/>
    <path class="cls-1" d="M74.87,80.88s.01-.05.02-.09c.14-.63.04-.24-.02.09Z"/>
    <path class="cls-1" d="M79.64,108.81s-.04-.06-.06-.09l-.17-.18.23.27Z"/>
    <path class="cls-1" d="M88.72,117.79c-.12-.1-.23-.18-.32-.25.09.08.2.18.34.31-.02-.04-.03-.05-.02-.06Z"/>
    <path class="cls-1" d="M73.62,93.16c.07.23.11.31.13.32-.03-.27-.07-.45-.13-.32Z"/>
  </g>
  <g>
    <path class="cls-1" d="M67.32,88.75s.03,0,.06,0c-.02-.01-.04-.01-.06,0Z"/>
    <path class="cls-1" d="M66.73,79.77l.02.11c0-.07,0-.1-.02-.11Z"/>
    <path class="cls-1" d="M69.12,93.86s-.01,0-.02,0c.04.08.08.18.16.35l-.15-.34Z"/>
    <path class="cls-1" d="M71.34,61.09l-.05.11s.04-.08.05-.11Z"/>
    <path class="cls-1" d="M67.79,71.98s0-.1,0-.16c-.02.07-.03.13,0,.16Z"/>
    <path class="cls-1" d="M69.67,96.96l-.03-.18s-.02.09.03.18Z"/>
    <path class="cls-1" d="M74.07,100.74s0-.01,0-.02c-.01,0,0,.01,0,.02Z"/>
    <path class="cls-1" d="M72.43,99.18s-.09-.05-.14-.08c.05.04.11.1.14.08Z"/>
    <path class="cls-1" d="M72.23,99.06l.07.04s-.06-.05-.07-.04Z"/>
    <path class="cls-1" d="M128.29,56.56c.08.13.19.22.3.31l-.3-.31Z"/>
    <path class="cls-1" d="M81.36,47.54v.05s0-.04,0-.05Z"/>
    <path class="cls-1" d="M128.95,56.38l.04.1s-.03-.08-.04-.1Z"/>
    <path class="cls-1" d="M67.92,94.43c-.14-.12-.22-.47-.28-.43.09.15.15.41.28.43Z"/>
    <path class="cls-1" d="M83.19,43.2l.1-.05s-.08.04-.1.05Z"/>
    <path class="cls-1" d="M128.95,56.38l-.05-.12s0,.04-.01.05c.02.02.05.04.06.07Z"/>
    <path class="cls-1" d="M98.17,43.02h0s-.02,0-.04.01h.04Z"/>
    <path class="cls-1" d="M99.11,43.19c-.07,0-.13,0-.2.01.11.01.16,0,.2-.01Z"/>
    <path class="cls-1" d="M128.59,56.87l.17.18c-.05-.07-.11-.13-.17-.18Z"/>
    <path class="cls-1" d="M109.22,45l-.09-.02s.07.02.09.02Z"/>
    <path class="cls-1" d="M67.61,72.7l-.03.08s.03,0,.03-.08Z"/>
    <polygon class="cls-1" points="67.48 65.1 67.48 65.09 67.48 65.09 67.48 65.1"/>
    <path class="cls-1" d="M67.45,65.5c.05-.11.05-.3.03-.41-.04.12-.06.24-.03.41Z"/>
    <path class="cls-1" d="M67.78,64.29s-.01.03-.02.04c.01-.01.02-.03.02-.04Z"/>
    <polygon class="cls-1" points="65.6 72.01 65.61 72.01 65.6 72.01 65.6 72.01"/>
    <path class="cls-1" d="M65.92,70.45s.04-.06.06-.1c-.02.02-.04.06-.06.1Z"/>
    <polygon class="cls-1" points="68.93 60.5 68.93 60.5 68.93 60.49 68.93 60.5"/>
    <path class="cls-1" d="M76.73,47.4c-1.13,1.12-2.34,2.74-3.28,3.96-.07.36-.35.76-.6,1.18l-.2-.07-.17.38c-.14.11.14-.28-.09-.08l.02.2c-.08-.01-.61.85-.36.2-.3.44-.55.9-.83,1.35-.18.3.04.26-.19.57-.09.04.03-.14-.05-.15-.69.95-.3,1.36-.85,2.27l.02-.09c-.03.19-.19.49-.17.51.25-.03-.02-.22.24-.46.14.1-.1.4.03.44-.17.19-.13.37-.22.57-.25.29-.4.8-.64,1-.02.19.06.44-.08.8-.23.2-.09-.11-.29.22l.07.09c-.13.28-.14.23-.18.2-.12.31.03.31-.18.67v-.25c-.08.3-.14.41-.31.81-.05-.03.02-.19.08-.3-.22.16-.09.39-.14.51.05-.02.18-.29.22-.12-.09.19-.03.47-.19.57v-.25c-.09.44.03.27-.18.73,0-.03-.03-.02-.04-.04.01.34-.24.7-.39,1.15v-.09c-.03.19.03.32-.01.42.14-.24.14-.16.24-.15-.27.29,0,.57-.25,1.1-.05-.03-.08-.18.03-.31-.1-.24-.23-.31-.2-.67-.03.22-.09.48-.14.4l.13.11c-.04.13-.07.23-.11.32.08.08.24-.21.21.11-.05.35-.21.13-.16.2-.08.48.1.24-.08.66,0-.05,0-.14.03-.17-.16.3-.2.79-.41.83-.03-.06-.08-.08-.03-.2h.03c-.03-.38-.05.32-.18.16.11,0-.04.45-.12.64l.13-.03c.15.77-.21-.1-.36.58-.04.44.08-.15.08.13-.09.28-.22.36-.28.8-.07.11-.19.33-.33.32-.01.27-.26.77-.16.95.21-.42-.03-.47.26-.95l.09.17c-.1.35-.14.82-.24,1.06.04-.04.07-.06.09-.02-.06.52.03.69-.11,1.18-.13.04-.05-.24-.01-.46-.16.3-.08.33-.22.82-.11,0,.08-.33,0-.41-.03.19-.06.37-.08.56,0,0-.01,0-.02,0,.15.11-.09.42-.1.77-.14.8.05.96.13,1.43-.06.11-.11.14-.15.08.1-.19.04-.16,0-.24-.02.27-.25.57-.3.41-.01.44.11-.14.13.13l-.09.59c.1-.06.14-.26.17.05-.01.26-.05.38-.1.72-.04-.05-.14.09-.11-.16-.05.16-.08.42,0,.52.12-.36.02.62.18.35l-.11.36c0-.08-.05-.1-.02-.22-.14.09,0,.31,0,.44-.04.13-.08.47-.14.49.02.12-.02.41-.09.46.02.18.09.02.13.07l-.04.59c-.08.03-.28.07-.3-.02.06.23.21.09.19.43-.13-.2-.13.45-.29.16-.12.19-.13.76-.09,1.07.11.19.07-.34.18-.31.04.87.36.92.3,1.55l.03-.16c.06.39.06.35.17.58-.15-.11-.36.46-.3,1.11.07.05.12-.37.24-.27l.04.43s-.04-.01-.06-.07c.06.38-.13.73.05.83l-.17.41.07-.16c.08.05.14.48.18.56.13.43.07.6.03.85.05-.08.15-.29.23.05-.23.03.04.73-.08.74.03.14,0,.4.09.4h-.15c.21,0,.26.51.4.88-.29-.03.12.42-.08.64.2.03.24.67.4.69.08.29-.09.31-.13.4l.11.12c-.04.17.12.72.17,1.07l.25.25-.04.14c.05.04.16.28.17.1l.05.16c.17-.05.14.21.33.5,0,.08-.05.08-.1.02.06.16-.05.12-.07.23,0-.13.53.45.43,0,.06-.06.2.17.24.34l-.11.16.23.12c.11.23.09.37.16.57-.1-.19-.5-.3-.24.2-.15-.26-.3-.35-.39-.48.04.11.05.17-.09.03.23.38.15.09.36.48-.14.04-.13.17,0,.54l-.03-.31s.04.02.06.03c-.03-.1-.03-.14.01-.19.04.08.39.38.34.48,0-.49.5.6.49.29.06.02.2.29.16.35-.28-.26,0,.32-.12.31.11.1-.06-.3.09-.17.12.18.13.36.15.49l-.07-.06.12.32c.09,0-.06-.34.13-.1.02.09.21.33.15.35-.16-.07-.22.09-.38-.13.12.18.5.78.47.46l.13.23c-.04-.18-.18-.62.11-.19h-.03c.09.1.19.18.29.26l.03.17s.09,0,.16.12c-.01.05.05.17,0,.19.24.31.28.24.34.26.14.17.17.25.04.22.17.25.52.65.6.85.32.26-.03-.08.2.03.04.43.86,1.05,1.4,1.45,0-.29.15.1.38.01-.16-.03.4.52-.1.21l.3.2c.13.25-.53-.29-.33.07.34.24.69.2,1.06.52-.22.05.35.14.16.23-.12,0-.23-.08-.35-.15l.06.07c.77.49.32-.02.78.1.5.22.34.3.34.38.07.06.34.15.49.16-.35-.04-.54-.33-.36-.36.15.27.75.31.91.28-.66-.43-.51-.18-1.08-.66-.11,0-.17.17-.52-.1.27.06.03-.09-.03-.15.03.12-.28-.11-.4-.15-.06-.13.32-.05-.01-.3l-.19.14c-.12-.12.15-.09-.17-.25.22.01.05-.17.46.06-.36-.46-.76-.41-1.16-.63.04.02.07,0,.11.02-.11-.02-.24-.13-.35-.21-.19-.23.24.08.22-.02-.12-.1-.24-.2-.35-.31,0-.01,0-.02,0-.02-.11-.06-.21-.13-.2-.2.15.05.24.03.34.05-.15-.07-.3-.15-.45-.23.09-.01-.2-.37.08-.16-.18-.16-.34-.33-.51-.5l.07-.14c-.13-.11-.16-.1-.04.07-.14-.2-.89-.67-.59-.75-.44-.37-.52-.56-.96-1.08.39.36-.17-.6.17-.17-.11-.31-.28-.28-.43-.49-.07-.24.11-.22.28-.03l-.21-.22h.03s-.21-.19-.21-.19c-.08-.28.1-.12-.04-.38h-.14s-.03-.19-.03-.19c-.01.09-.13-.04-.23-.22h.03s-.13-.23-.13-.23c.18.19-.08-.22.05-.16-.09-.2-.09-.2-.29-.54l-.05.1c-.3-.42.11-.08-.07-.45l-.08.07c-.12-.59-.48-.89-.55-1.33.12.22.2.12.17.13-.17-.34-.39-.91-.61-1.25.1-.18.13-.23.07-.63-.1-.27-.12-.31-.23-.38-.04-.28-.25-.77-.14-.81-.1-.04-.04-.25-.15-.38l.03-.04-.09.05c.11-.54-.34-.79-.23-1.33l.04.08-.07-.2s.08.04.14.04l-.15-.97-.04.2c-.04-.2-.17-.33-.14-.57.21.37-.05-.32.07-.4l.06.2q-.04-.29-.14-.25c-.08-.37.17-.28.02-.61l.02.25c-.05.08-.15-.09-.17-.25.01-.04.04-.16.07-.04-.07-.29-.07-.74-.12-.86.02-.16.1-.12.13-.03-.12-.62,0-.29-.11-.91h.06s-.08-.21-.08-.21l.11-.31-.07.11c-.02-.21-.07-.34-.04-.58l.09.1c-.05-.59.14-.68.03-1.23.02-.04.04.05.06.09-.13-.52.15-.39,0-.91.03.03.07-.02.09,0l-.04-.24.11.02-.16-.2.13-.14-.05-.09c.23-.24.09-.6.27-.94l-.15.05c-.23-.89.32-1.97.35-3.02l.11.03-.08-.45c.12-.22.08.15.15.09,0-.47-.14-.22-.1-.76.13-.26.07.11.09.24.02-.51.1-1.26.22-1.6-.01-.01-.03-.04-.04-.02,0-.34.14-.77.22-1.14.05.02.04.11.03.2.03-.13.11-.3.08-.42l.07.16c.08-.27.11-.83.23-.87-.05.02-.13,0-.08-.25.2-.09.09-.67.28-1.03.03.06-.03.34-.01.26.09-.18.06-.37.05-.56l.06.07c.04-.31.08-.62.14-.92.21-.09.21-.85.32-.75.1-.32-.15.25-.06-.16.1-.09.07-.37.17-.33v.05s.07-.28.07-.28l.06.21c.04-.25,0-.46-.09-.49.13-.21.18-.55.31-.62v.09c.15-.66.63-.96.62-1.52.03-.03.05-.02.03.06l.14-.39.05.12.1-.69.05.03c.17-.42.38-1.09.58-1.63v.09c.14-.62.26-.55.38-1,0,.02,0,.04,0,.05l.16-.38.02.11c0-.33.49-.74.32-.61.02-.18.08-.48.04-.55.18-.41.11-.07.27-.3.14-.29.07-.39.31-.76l.05.03c.08-.19.1-.32.22-.58v.09c.09-.47.39-.45.35-.88.13-.15.28-.49.37-.42.2-.55.41-.95.67-1.47.21.02.05-.12.33-.35l-.1-.03c.22-.34.5-.68.79-1.02.31-.33.61-.67.85-1.04l.1.04.02-.21c.62-.73,1.44-1.64,1.97-2.17.13-.21.31-.57.61-.82l-.02.04c.47-.5.96-1.04,1.59-1.44,0,.06.07.04.02.11.07-.2.33-.28.46-.38l-.19.06c.1-.22.41-.31.54-.31l.21-.28s.06-.01.07,0l.02-.08h.22c.05-.06.4-.33.45-.51.05.02.33-.12.14.03.34-.22.71-.4,1.07-.6l-.19.05c-.07-.07.21-.33.41-.37-.18.19.05.14.18.15.12-.13-.17-.01-.12-.1.15-.16.53-.4.65-.41l-.09.09c.23-.17.44-.06.68-.19.19-.18.39-.19.27-.33.32-.19.18.05.29.02.13-.14.62-.29.71-.23.09-.33.95-.26.95-.49h.32s0-.19.23-.29c.24-.01.22.1.3.14l.08-.25c1.33-.19,3-.73,4.47-.75.63-.14,1.44-.33,2.2-.36l-.08.03c.25,0,.5,0,.76.01l-.55-.07c.16-.04.29-.08.45-.09.84.03,1.94.14,2.97.06.68-.21.43.24,1.07.09-.06.02-.08.05-.13.08.69-.03,1.06-.05,1.77-.12-.11.23.45.04.37.16l.07-.09c.15.08.5.15.44.21l.32-.08v.1c.41.05,1.28.13,1.45.36,1.01.02,2.55.4,3.76.77.19-.03.55.05.83.12l.26.2c.29.05.64-.02.87.14,0,.01-.02.02-.04.02.29.07.54.21.84.19.31.11.59.27.46.35.09-.18.65.25.65.25,0,0,.98.36,2.5.99,1.52.63,3.54,1.52,5.57,2.64,2.03,1.11,4.02,2.46,5.59,3.79,1.57,1.33,2.71,2.64,3.47,3.34.15.06.4.35.43.17.18.23.09.43.21.43-.14-.37.29-.02.2-.42l.15.21c.09,0-.25-.26-.1-.27l-.2.03c-.08-.19-.1-.3-.09-.4-.16-.13-.43-.1-.6-.53l.08.1c-.22-.3-.03-.25-.05-.34l.05.07-.1-.31c.08.23.43.47.31.31-.21-.4.03.12-.18-.14-.13-.17-.01-.18.04-.2l-.22-.31c.08-.04.14.21.12.03-.11-.12-.24-.22-.36-.33.12-.2-.4-.34-.38-.64.25.24.04-.07.13-.07-.18-.22-.38-.42-.57-.63-.03-.08.2.12.1.03-.06-.16-.21-.16-.27-.23,0-.1-.44-.46-.32-.54-.34-.48-.3-.04-.62-.48.01-.11.32.29.21.05-.14-.13-.29-.24-.43-.36.07,0,.18-.03.32.12-1.03-1.11-1.4-1.99-2.61-2.73-.1-.2.16.02.31.05-.91-.47-1.05-1.01-1.81-1.46l-.06.07c-.9-.87-2.26-1.43-3.44-2.12l.12.13c-.2,0-.48-.13-.7-.19-.01-.05.23-.1-.15-.23.06.06.2.16.14.18-.96-.71-3.25-1.62-5.02-2.37-2.45-.82-5.12-1.78-7.66-2.25.38.08.18.25-.1.14-.72-.51-1.38-.2-2.16-.58-1.5-.11-2.81-.56-4.23-.35l-.02-.1c-.21-.06-.27.01-.49.01v-.03c-.51-.05-1.15.04-1.45,0l-.02.12c-.31.01-.16-.09-.48-.02v-.06s-.36.12-.36.12c.03-.21-.87.02-1.13-.06-.4.06-1.15.2-1.76.24-.12-.09-.87,0-1.35.02-.92.15-2.22.46-3.37.73l.05.12-.3.09s-.05-.03,0-.06c-.27-.08-.68.23-.94.23.18.07.21-.05.38-.1.26,0,.06.17-.28.22v-.03s-.2.14-.2.14c-.06-.09-.27-.07-.33-.16-.97.34-1.55.76-2.54,1.13.05-.15-.68.35-.57.08-.55.34.16.1-.04.35-.16.07-.3.2-.37.15.05-.08-.18-.05-.06-.12-.13.06-.25.14-.37.21-.04,0,.03-.06.06-.1-.72.49-1.42.62-2.03,1.12-.01.09.27-.15.26-.05-.58.54-.65.26-1.21.75l.07-.17c-.16.19-.19.32-.55.48-.12-.06.21-.27.33-.43-.22.15-.75.58-.52.54-.24.22-.39.21-.54.29.01.03.28-.13.17.03-.37.23-.91.64-1.31.99-.02-.02-.07-.03-.05-.07-.22.4-.36.18-.77.6Z"/>
    <path class="cls-1" d="M65.55,72.21l.05-.2s-.05-.02-.06-.12v.32Z"/>
    <path class="cls-1" d="M68.18,62.83s0-.05,0-.08c-.01.05,0,.07,0,.08Z"/>
    <path class="cls-1" d="M68.82,60.53c-.04.17.05.04.1-.03-.02-.01-.05-.02-.1.03Z"/>
    <path class="cls-1" d="M65.11,77.74s-.02-.06-.05-.06c.02.05.03.06.05.06Z"/>
    <path class="cls-1" d="M67.18,92.87s0-.04,0-.06c0,.01,0,.04,0,.06Z"/>
    <path class="cls-1" d="M67.02,92s-.04-.09-.08-.16c.02.07.05.12.08.16Z"/>
    <path class="cls-1" d="M65.5,74.06c0-.06,0-.11-.01-.16,0,.09,0,.13.01.16Z"/>
    <path class="cls-1" d="M66.85,91.69l-.07-.2s-.01,0-.02,0l.09.2Z"/>
    <path class="cls-1" d="M67.26,93.13c-.03-.08-.07-.19-.09-.26.01.11.04.19.09.26Z"/>
    <path class="cls-1" d="M65.22,83.35v-.02c-.06-.16-.04-.06,0,.02Z"/>
    <polygon class="cls-1" points="66.35 90.87 66.35 90.84 66.3 90.79 66.35 90.87"/>
    <path class="cls-1" d="M67.64,93.99s-.04-.07-.07-.09c.01.03.03.07.04.12,0-.02.02-.02.02-.03Z"/>
    <path class="cls-1" d="M65.41,86.56c.05.05.09.07.11.07-.01-.07-.04-.11-.11-.07Z"/>
  </g>
  <g>
    <path class="cls-1" d="M76.71,117.54s.02-.02.03-.04c-.02.02-.03.03-.03.04Z"/>
    <path class="cls-1" d="M71.12,115.02h.08s-.06,0-.08,0Z"/>
    <path class="cls-1" d="M80.17,118.76s0,0-.01,0c.05.02.13.04.25.08l-.23-.09Z"/>
    <path class="cls-1" d="M59.55,109.12l.06.04s-.04-.03-.06-.04Z"/>
    <path class="cls-1" d="M66.3,112.73s-.07,0-.11-.01c.04.02.08.04.11.01Z"/>
    <path class="cls-1" d="M81.79,120.35l-.09-.1s.02.08.09.1Z"/>
    <path class="cls-1" d="M85.57,120.78s0-.01,0-.02c0,0,0,.01,0,.02Z"/>
    <path class="cls-1" d="M84.17,120.23s-.07,0-.11.01c.04,0,.1.02.11-.01Z"/>
    <path class="cls-1" d="M84.01,120.25h.05s-.05-.01-.05,0Z"/>
    <path class="cls-1" d="M66.37,68.99c.09-.03.15-.12.22-.2l-.22.2Z"/>
    <path class="cls-1" d="M55.85,99.8l.03.02s-.02-.03-.03-.02Z"/>
    <path class="cls-1" d="M66.24,68.33h.08s-.05,0-.08,0Z"/>
    <path class="cls-1" d="M79.79,120.04c-.13.04-.32-.11-.34-.04.12.02.26.12.34.04Z"/>
    <path class="cls-1" d="M52.97,97.34v-.07s0,.06,0,.07Z"/>
    <path class="cls-1" d="M66.24,68.33l-.09.02s.03.02.04.02c.01-.02.03-.03.05-.04Z"/>
    <polygon class="cls-1" points="56.07 87.55 56.07 87.56 56.08 87.58 56.07 87.55"/>
    <path class="cls-1" d="M56.26,86.93s0,.09,0,.14c.02-.07,0-.11,0-.14Z"/>
    <path class="cls-1" d="M66.59,68.79l.13-.12c-.05.03-.09.07-.13.12Z"/>
    <path class="cls-1" d="M57.54,80.26v.06s0-.05,0-.06Z"/>
    <path class="cls-1" d="M66.73,112.98l.05.04s.01-.03-.05-.04Z"/>
    <polygon class="cls-1" points="61.45 112.69 61.45 112.69 61.45 112.69 61.45 112.69"/>
    <path class="cls-1" d="M61.72,112.72c-.07-.05-.2-.05-.28-.03.07.04.15.05.28.03Z"/>
    <path class="cls-1" d="M60.95,112.41l.02.02s-.01-.02-.02-.02Z"/>
    <polygon class="cls-1" points="65.67 114.8 65.68 114.79 65.67 114.8 65.67 114.8"/>
    <path class="cls-1" d="M64.72,114.37s-.03-.04-.05-.06c0,.02.03.04.05.06Z"/>
    <polygon class="cls-1" points="58.47 111.34 58.47 111.33 58.47 111.33 58.47 111.34"/>
    <path class="cls-1" d="M52.89,102.26c.1,1.04.41,2.41.68,3.51.21.19.32.53.48.86l-.18.11.18.26c-.01.14-.12-.21-.11.03l.16.06c-.06.05.3.75-.06.33.17.37.37.74.6,1.09.15.24.22.04.36.32-.01.08-.1-.06-.14,0,.44.84.95.57,1.46,1.19l-.07-.03c.13.06.33.23.35.21.06-.22-.18,0-.28-.26.13-.11.28.13.36.02.1.16.24.16.37.25.14.25.49.42.58.64.14.03.35-.03.58.11.09.22-.11.08.09.27l.09-.06c.18.13.13.13.1.17.2.12.24-.02.45.18h-.19c.2.08.27.13.53.29-.03.05-.14-.01-.2-.07.07.21.27.08.34.13,0-.05-.17-.16-.04-.2.12.08.34.02.37.18h-.18c.3.08.2-.03.49.17-.02,0-.02.02-.04.04.25-.02.45.21.73.36h-.07c.13.02.23-.03.29,0-.14-.13-.08-.14-.05-.23.14.25.41-.02.71.24-.03.05-.14.07-.21-.03-.19.1-.27.22-.52.19.15.03.31.08.25.13l.11-.12c.08.03.14.07.2.1.08-.07-.09-.22.12-.2.23.05.04.2.1.15.31.08.19-.1.44.08-.03,0-.1,0-.12-.03.17.15.5.21.47.41-.05.02-.08.07-.15.02l.02-.02c-.28.02.2.05.06.18.03-.1.3.05.41.13v-.12c.58-.12-.11.2.32.35.3.05-.09-.08.11-.07.17.1.19.23.47.3.05.08.17.2.13.33.18.03.45.28.6.21-.22-.23-.33,0-.57-.3l.14-.07c.21.11.52.18.65.29-.02-.04-.02-.07.01-.09.33.1.48.03.76.2,0,.12-.18.02-.31-.03.16.18.2.1.49.28-.03.1-.2-.1-.28-.03l.35.13v.02c.11-.13.24.13.47.18.49.22.66.05.98.05.05.08.06.12,0,.15-.09-.12-.09-.06-.15-.04.17.06.29.32.17.34.28.07-.06-.13.12-.1l.36.17c0-.1-.13-.17.09-.15.17.05.24.1.44.19-.05.03.01.15-.14.08.09.07.24.15.33.1-.19-.17.4.1.29-.1l.19.17c-.05-.02-.08.03-.15-.02.01.15.2.05.28.07.07.06.27.16.27.21.09,0,.25.1.26.18.12.02.04-.08.09-.1l.36.17c0,.08-.06.28-.13.28.16,0,.13-.18.34-.08-.17.08.23.22,0,.3.08.15.42.29.62.33.16-.06-.18-.14-.12-.25.54.18.7-.1,1.06.11l-.09-.07c.27.04.23.04.41,0-.12.11.13.47.54.6.06-.05-.17-.22-.07-.3l.27.08s-.02.03-.06.03c.26.05.37.35.5.22l.17.29-.06-.12c.06-.05.33.03.4.03.3.03.38.12.5.26-.03-.07-.1-.24.12-.18-.08.22.42.25.37.36.09.03.22.16.26.07l-.06.13c.09-.18.4-.05.66,0-.15.24.28.07.3.35.11-.16.46.08.55-.05.19.06.12.21.15.29l.11-.04c.07.12.42.24.62.37l.25-.09.05.09s.22,0,.13-.09l.1.04c.06-.17.17,0,.4,0,.04.04.02.08-.04.09.11.04.03.11.07.19-.06-.07.48-.19.21-.35,0-.08.19-.08.28-.02l.02.17.18-.13c.17.03.21.14.34.2-.14-.03-.39.21-.04.31-.19-.03-.31.03-.42.03.07.03.1.05-.03.09.29.03.12-.07.4,0-.06.13,0,.2.24.32l-.15-.15s.03-.02.05-.03c-.06-.03-.08-.06-.08-.12.05.02.37-.08.39.02-.22-.3.53-.03.39-.21.04-.03.24.01.24.09-.26.05.13.2.07.29.1-.02-.15-.15-.02-.17.14.03.22.14.28.2h-.06s.2.13.2.13c.05-.06-.18-.17.03-.16.04.04.25.06.23.11-.12.07-.08.22-.26.2.14.03.59.12.44-.05l.17.05c-.09-.09-.35-.27-.02-.2v.03s.25-.05.25-.05l.08.1s.05-.06.14-.04c.01.05.09.08.07.14.25.05.25-.03.29-.06.14.02.19.06.1.13.19.06.53.12.64.22.27,0-.05-.04.12-.1.17.3.84.27,1.26.32-.07-.24.12,0,.23-.19-.1.05.37.24,0,.24l.23.02c.13.15-.39.02-.18.23.26.04.46-.16.75-.04-.13.14.24-.02.14.14-.07.05-.15.02-.24.02l.05.04c.56.13.19-.16.5-.22.34.03.25.16.26.24.05.04.22.04.32.01-.22.06-.37-.15-.26-.24.13.2.5.09.61.03-.46-.26-.34-.06-.76-.33-.07.05-.08.21-.35.1.18-.05,0-.09-.04-.12.04.1-.2,0-.28.03-.06-.08.2-.19-.07-.26l-.09.21c-.1-.05.07-.15-.17-.14.14-.09,0-.17.31-.16-.34-.24-.58,0-.88.02.03,0,.04-.04.07-.04-.07.04-.18.02-.27.02-.18-.08.17-.07.13-.14l-.31-.05s0-.02,0-.02c-.09.01-.17.02-.18-.04.1-.05.15-.12.22-.16l-.35.09c.05-.06-.24-.17,0-.18l-.48-.07v-.15c-.13,0-.14.03,0,.08-.15-.07-.77.09-.62-.17-.39.03-.52-.03-.98-.08.37-.04-.35-.27.03-.23-.19-.12-.28.03-.45,0-.14-.1-.03-.22.15-.23h-.21s.01-.01.01-.01l-.19.04c-.16-.12,0-.15-.18-.22l-.07.11-.11-.11c.03.07-.09.07-.22.04v-.03s-.16-.02-.16-.02c.18-.03-.14-.07-.04-.14-.14-.05-.14-.05-.4-.1l.02.1c-.35-.02.02-.13-.24-.21v.1c-.35-.28-.69-.09-.94-.29.17.03.16-.1.15-.07-.25-.04-.64-.19-.93-.16-.05-.17-.05-.22-.29-.36-.19-.05-.22-.05-.31.01-.16-.12-.53-.15-.5-.26-.07.07-.16-.07-.28-.04v-.05s-.02.1-.02.1c-.24-.33-.58-.06-.84-.37h.06s-.15-.02-.15-.02c0-.05.06-.05.08-.11l-.62-.25.1.12c-.14-.04-.26.02-.39-.09.3-.05-.21-.08-.2-.21h.15q-.19-.05-.21.05c-.25-.06-.09-.24-.35-.22l.15.07c.02.07-.12.11-.22.06-.02-.02-.08-.1,0-.08-.2-.04-.46-.2-.56-.19-.09-.07-.03-.12.03-.13-.43-.07-.17-.09-.6-.16l.03-.05h-.16s-.15-.18-.15-.18l.04.1c-.13-.04-.23-.04-.37-.13l.09-.05c-.38-.11-.37-.31-.76-.34-.02-.02.05-.03.08-.03-.37-.01-.18-.24-.57-.23.03-.02,0-.07.03-.08h-.17s.06-.11.06-.11l-.19.11-.04-.15-.08.03c-.07-.27-.36-.21-.51-.46l-.02.15c-.66.05-1.17-.7-1.87-.86l.06-.1h-.32c-.11-.15.13-.05.11-.12-.31-.07-.19.1-.54-.02-.14-.15.09-.05.19-.05-.34-.09-.82-.24-1.02-.4-.01.01-.03.02-.03.04-.23-.05-.48-.23-.71-.33.03-.05.09-.03.15-.01-.08-.04-.18-.13-.27-.11l.13-.05c-.17-.1-.54-.18-.53-.3,0,.05-.04.12-.19.05,0-.2-.44-.13-.65-.33.05-.02.23.05.18.03-.1-.1-.25-.08-.38-.08l.06-.05-.61-.18c0-.2-.55-.23-.45-.33-.2-.1.14.15-.13.05-.04-.1-.25-.08-.19-.18h.03s-.18-.08-.18-.08l.16-.05c-.16-.05-.33,0-.37.07-.12-.13-.35-.18-.37-.3h.07c-.43-.15-.54-.6-.94-.58-.02-.03,0-.05.05-.03l-.24-.13.1-.05-.46-.08.03-.05c-.25-.15-.67-.34-1-.51h.06c-.39-.12-.31-.24-.58-.34.02,0,.03,0,.04,0l-.22-.14.08-.02c-.23,0-.35-.43-.32-.28-.11-.02-.3-.07-.37-.03-.22-.16,0-.1-.11-.24-.15-.12-.24-.07-.4-.28l.04-.04c-.1-.07-.17-.09-.3-.2h.06c-.28-.09-.11-.34-.43-.32-.03-.12-.2-.25-.1-.32-.25-.21-.43-.4-.62-.67.14-.14-.05-.05-.04-.28l-.08.06c-.23-.42-.18-1.02-.35-1.52l.1-.04-.13-.08c-.1-.58-.17-1.36-.21-1.85-.07-.15-.21-.4-.19-.66l.02.03c-.09-.45-.15-.95-.11-1.47.04.03.07-.02.1.04-.12-.12-.01-.31-.02-.42l-.07.13c-.1-.14-.01-.36.06-.44l-.12-.23s.02-.04.04-.04l-.06-.04.13-.13c-.03-.06-.07-.37-.2-.46.04-.02.07-.25.1-.08l.02-.86-.04.14c-.1.02-.17-.24-.13-.37.09.17.14.01.22-.07-.06-.12-.09.1-.15.04-.07-.15-.11-.46-.07-.54l.04.09c-.04-.2.13-.3.12-.49-.09-.18-.01-.31-.19-.27-.04-.25.12-.1.13-.18-.09-.12-.04-.48.05-.52-.26-.14.08-.69-.13-.74l.12-.21c-.06,0-.19-.05-.21-.22.06-.16.16-.12.22-.17l-.21-.11c.23-.92.09-2.13.31-3.12-.03-.45-.11-1.01-.05-1.53l.02.06.09-.51-.12.37c-.02-.11-.06-.2-.05-.31.13-.56.29-1.3.25-2-.2-.47.25-.27.12-.72.02.04.05.06.07.09-.03-.47-.04-.72-.12-1.2.23.09.04-.3.16-.24l-.09-.05c.08-.09.13-.33.2-.28l-.09-.22h.1c.05-.26.07-.85.3-.95-.03-.68.24-1.7.5-2.48-.05-.13.01-.37.06-.55l.17-.16c.02-.19-.06-.43.07-.58.01,0,.02.02.02.03.03-.19.16-.35.11-.55.08-.2.21-.37.29-.27-.18-.09.19-.41.19-.41,0,0,.26-.63.74-1.55.48-.92,1.19-2.14,2.09-3.3.89-1.18,1.97-2.28,2.98-3.16,1-.88,1.94-1.53,2.43-2.04.04-.12.25-.28.11-.35.16-.11.31.02.31-.08-.27.04-.02-.27-.3-.29l.15-.09c0-.08-.18.16-.19.03l.02.19c-.14.02-.22.02-.29-.02-.09.12-.06.37-.38.4l.07-.05c-.22.11-.19-.04-.25-.05l.05-.02h-.23c.17,0,.34-.26.22-.19-.29.08.09,0-.1.12-.12.07-.13-.04-.15-.09l-.22.11c-.03-.08.15-.07.02-.1-.08.07-.16.15-.24.23-.16-.16-.25.26-.48.15.18-.15-.05-.05-.06-.13l-.48.31c-.06,0,.09-.14.02-.08-.12,0-.12.14-.17.17-.08-.03-.35.24-.42.11-.38.14-.03.24-.37.38-.09-.05.22-.19.04-.17l-.28.25c0-.05-.03-.16.1-.23-.88.51-1.62.54-2.22,1.3-.17.02.02-.12.04-.24-.4.59-.85.54-1.25,1l.06.07c-.76.45-1.24,1.36-1.85,2.08l.11-.06c0,.15-.11.33-.16.48-.05,0-.1-.2-.21.06.06-.03.14-.11.16-.06-.64.56-1.41,2.1-2,3.28-.63,1.67-1.34,3.48-1.65,5.2.05-.26.23-.1.14.08-.47.46-.13.93-.47,1.44-.05,1.01-.48,1.86-.31,2.82h-.1c-.06.14,0,.19,0,.33h-.03c-.07.33,0,.76-.07.95l.11.02c0,.2-.1.1-.05.31h-.06s.09.24.09.24c-.2-.04-.06.57-.16.73.02.26.08.77.02,1.16-.11.07-.13.56-.19.87,0,.61.02,1.47-.02,2.23h.13s0,.19,0,.19c-.03,0-.04.02-.06,0-.15.15.05.46-.05.62.12-.1.02-.14.02-.25.06-.16.19,0,.12.21h-.03s.07.15.07.15c-.1.02-.15.15-.25.17.03.66.21,1.1.17,1.78-.12-.07.04.48-.16.35.08.4.16-.07.3.11,0,.11.06.23-.02.25-.05-.05-.12.09-.14,0l.02.27s-.04-.03-.06-.06c.13.55-.11.98.02,1.47.07.03.01-.2.09-.16.16.49-.12.44,0,.9l-.1-.09c.07.15.16.21.09.46-.12.05-.1-.21-.16-.32,0,.17.04.59.14.46.04.2-.06.28-.09.39.03,0,.07-.19.13-.07-.06.28-.04.71-.04,1.06-.03,0-.07.02-.09,0,.16.27-.1.25-.04.64Z"/>
    <path class="cls-1" d="M65.79,114.87l-.12-.07s-.03.05-.1.05l.21.03Z"/>
    <path class="cls-1" d="M60,112.04s-.04,0-.06,0c.03.01.05,0,.06,0Z"/>
    <path class="cls-1" d="M58.46,111.43c.12.04.04-.04,0-.1-.01.02-.03.04,0,.1Z"/>
    <path class="cls-1" d="M69.25,116.09s-.05,0-.05.03c.04,0,.05-.02.05-.03Z"/>
    <path class="cls-1" d="M78.7,119.72s-.02-.02-.03-.03c0,.01.02.02.03.03Z"/>
    <path class="cls-1" d="M78.22,119.39s-.06-.02-.11-.02c.05.02.08.02.11.02Z"/>
    <path class="cls-1" d="M67,115.13s-.07-.02-.11-.01c.05.02.09.02.11.01Z"/>
    <path class="cls-1" d="M77.99,119.36l-.13-.05s0,.01,0,.02l.14.03Z"/>
    <path class="cls-1" d="M78.87,119.79c-.05-.02-.12-.04-.17-.06.06.05.11.07.17.06Z"/>
    <path class="cls-1" d="M72.73,117.38h-.02c-.12,0-.05,0,.02,0Z"/>
    <polygon class="cls-1" points="77.33 119.36 77.32 119.35 77.27 119.37 77.33 119.36"/>
    <path class="cls-1" d="M79.45,120s-.05,0-.07,0c.02,0,.04.02.07.04,0-.02,0-.03,0-.04Z"/>
    <path class="cls-1" d="M74.64,118.31c.05-.03.08-.05.09-.07-.04-.02-.08,0-.09.07Z"/>
  </g>
  <g>
    <path class="cls-1" d="M149.41,117.23s-.02-.03-.04-.04c.01.02.03.03.04.04Z"/>
    <path class="cls-1" d="M144.9,124.04l.04-.09s-.05.07-.04.09Z"/>
    <path class="cls-1" d="M151.03,112.5s0,0,0,.01c.02-.08.05-.18.09-.34l-.1.33Z"/>
    <path class="cls-1" d="M129.22,129.96l.12-.02c-.05,0-.09,0-.12.02Z"/>
    <path class="cls-1" d="M139.35,128.18s-.06.06-.1.09c.06-.03.1-.05.1-.09Z"/>
    <path class="cls-1" d="M152.67,110.09l-.1.13s.08-.04.1-.13Z"/>
    <path class="cls-1" d="M153.03,104.9s-.01,0-.02.01c0,0,.01,0,.02-.01Z"/>
    <path class="cls-1" d="M152.51,106.88s.01.09.02.15c0-.06.01-.14-.02-.15Z"/>
    <path class="cls-1" d="M152.54,107.09v-.07s-.01.07,0,.07Z"/>
    <path class="cls-1" d="M76.33,122.37c0-.13-.06-.23-.1-.35.02.12.06.24.1.35Z"/>
    <path class="cls-1" d="M113.92,137.2v-.05s0,.04,0,.05Z"/>
    <path class="cls-1" d="M75.66,122.21s.01-.07.02-.1c-.02.04-.02.07-.02.1Z"/>
    <path class="cls-1" d="M152.31,112.85c.04.17-.12.45-.05.46.03-.16.14-.37.05-.46Z"/>
    <path class="cls-1" d="M113.21,141.66l-.08.07s.07-.05.08-.07Z"/>
    <path class="cls-1" d="M75.66,122.21v.12s.01-.02.02-.04c-.01-.03-.02-.05-.02-.08Z"/>
    <path class="cls-1" d="M99.76,140.62h0s.02,0,.04,0h-.04Z"/>
    <path class="cls-1" d="M98.98,140.25c.06.01.12.02.18.03-.09-.04-.14-.04-.18-.03Z"/>
    <path class="cls-1" d="M76.23,122.02l-.05-.21c0,.07.02.14.05.21Z"/>
    <path class="cls-1" d="M90.34,136.48l.08.04s-.06-.03-.08-.04Z"/>
    <path class="cls-1" d="M139.95,127.93l.07-.02s-.01-.03-.07.02Z"/>
    <polygon class="cls-1" points="134.16 131.72 134.15 131.72 134.15 131.73 134.16 131.72"/>
    <path class="cls-1" d="M134.51,131.58c-.12,0-.27.07-.35.14.12-.02.22-.05.35-.14Z"/>
    <path class="cls-1" d="M133.37,131.78s.03,0,.04,0c-.02,0-.03,0-.04,0Z"/>
    <polygon class="cls-1" points="140.69 129.91 140.68 129.9 140.68 129.91 140.69 129.91"/>
    <path class="cls-1" d="M139.31,130.56s-.07,0-.11,0c.03,0,.07,0,.11,0Z"/>
    <polygon class="cls-1" points="129.85 132.36 129.85 132.36 129.84 132.36 129.85 132.36"/>
    <path class="cls-1" d="M118.3,137.45c.97-.8,2.3-1.81,3.45-2.33.17-.27.54-.44.89-.64l.12.17.28-.19c.15,0-.22.14.03.11l.07-.17c.05.05.82-.28.35.06.4-.16.8-.32,1.21-.45.27-.09.1-.22.42-.27.08.04-.1.07-.05.13.95-.13.94-.7,1.85-.82l-.07.04c.14-.09.42-.15.42-.17-.16-.18-.13.14-.43.09-.02-.17.31-.17.27-.29.22.02.32-.1.5-.15.33.04.77-.11,1.02,0,.15-.08.29-.27.63-.32.26.1-.04.14.29.14l.04-.11c.27-.02.23.02.23.06.29-.03.22-.17.6-.14l-.19.12c.27-.07.38-.06.76-.09,0,.06-.16.07-.27.07.22.13.35-.1.46-.1-.04-.04-.3-.03-.18-.15.19,0,.39-.18.54-.07l-.2.12c.39-.12.2-.15.66-.15-.02.01,0,.03-.02.06.28-.16.67-.08,1.1-.12l-.08.04c.17-.05.26-.15.35-.16-.25-.03-.19-.07-.22-.16.34.13.47-.25,1.01-.22,0,.06-.12.15-.27.1-.16.19-.17.34-.48.46.2-.06.43-.12.39-.04l.04-.16c.12-.01.22-.02.31-.03.04-.11-.27-.13,0-.23.31-.09.19.14.23.06.43-.12.16-.19.59-.21-.04.02-.12.06-.16.05.31.02.74-.15.86.02-.04.05-.04.11-.16.11v-.03c-.31.2.27-.09.2.1-.04-.09.39-.16.59-.18l-.09-.1c.57-.48.01.24.65.04.39-.17-.16,0,.07-.13.28-.04.41.02.8-.14.12,0,.37,0,.43.11.23-.14.77-.19.85-.37-.44.06-.37.28-.91.28l.1-.17c.34-.1.74-.31.98-.37-.05,0-.09-.03-.07-.06.44-.24.53-.4.97-.58.11.08-.15.18-.34.28.32-.05.3-.14.75-.31.07.08-.3.14-.3.25l.47-.27s0,.01,0,.02c0-.18.37-.18.63-.39.68-.38.64-.67.92-1,.12-.02.17,0,.16.06-.2.04-.14.07-.17.14.21-.15.57-.18.49-.04.31-.28-.17.01,0-.18l.46-.32c-.11-.03-.28.07-.08-.15.18-.16.29-.22.54-.42,0,.06.16.04-.03.19.14-.07.33-.22.35-.35-.32.16.39-.42.1-.36l.31-.17c-.06.05-.03.1-.13.17.16.03.19-.22.27-.31.11-.06.35-.27.41-.25.06-.1.26-.27.35-.26.1-.14-.05-.07-.05-.13l.4-.39c.07.03.26.14.22.22.1-.2-.1-.2.12-.43-.02.23.36-.24.31.07.2-.07.56-.46.71-.72.03-.21-.25.2-.32.11.48-.66.27-.88.66-1.32l-.12.1c.17-.33.15-.29.2-.52.06.17.56-.11.87-.63-.03-.08-.3.2-.34.06l.21-.34s.02.03,0,.08c.16-.32.51-.46.43-.64l.37-.2-.15.08c-.03-.08.15-.43.17-.52.13-.4.26-.49.45-.65-.09.03-.29.13-.16-.17.2.11.38-.56.48-.5.06-.12.23-.29.14-.35l.12.08c-.17-.12.04-.54.15-.88.22.19.14-.37.43-.42-.15-.14.18-.62.05-.74.09-.26.24-.17.32-.22l-.02-.15c.13-.1.33-.59.48-.86l-.06-.33.11-.08c-.02-.06.03-.29-.08-.17l.06-.15c-.17-.07.02-.22.03-.54.05-.06.08-.03.09.04.05-.15.12-.06.2-.12-.08.09-.15-.63-.35-.25-.08,0-.06-.24,0-.38l.18-.05-.12-.22c.04-.23.17-.31.23-.49-.04.19.19.5.31,0-.05.27,0,.42,0,.56.03-.1.06-.15.09.03.06-.4-.06-.16.02-.54.13.06.21-.04.34-.37l-.17.23s-.02-.04-.03-.06c-.04.09-.07.11-.13.12.02-.08-.06-.49.04-.53-.31.33,0-.71-.2-.5-.03-.05.02-.32.1-.33.04.35.21-.21.3-.13-.01-.13-.16.23-.18.06.03-.19.15-.32.22-.41v.09s.13-.28.13-.28c-.06-.06-.18.26-.16-.02.04-.07.06-.35.12-.33.07.15.22.08.2.32.03-.2.13-.82-.05-.59l.05-.23c-.09.13-.28.52-.2.05h.03s-.05-.33-.05-.33l.1-.13s-.06-.06-.04-.18c.05-.02.08-.13.14-.11.05-.35-.02-.33-.06-.38.02-.2.06-.26.13-.16.06-.26.11-.73.22-.9-.02-.37-.04.07-.11-.15.29-.27.26-1.17.29-1.76-.24.13,0-.16-.19-.29.06.13.23-.54.24-.02v-.31c.15-.2.05.53.25.22.03-.35-.18-.61-.07-1.01.14.15-.02-.32.14-.2.05.09.02.2.02.32l.04-.07c.11-.77-.16-.24-.23-.65.02-.47.15-.36.23-.38.04-.07.03-.31,0-.43.07.29-.14.52-.23.38.19-.19.07-.69,0-.83-.24.65-.05.46-.3,1.07.05.09.21.09.11.46-.06-.24-.09,0-.12.07.1-.06.01.26.04.38-.08.1-.19-.24-.26.13l.21.09c-.05.15-.15-.08-.13.24-.09-.18-.18.03-.17-.4-.24.49.02.79.05,1.2,0-.04-.04-.05-.05-.09.05.09.02.24.02.36-.08.26-.07-.22-.14-.16l-.04.42s-.02,0-.02,0c.02.11.02.22-.03.26-.05-.13-.12-.19-.17-.28l.09.46c-.06-.06-.17.35-.18.03l-.06.66-.15.03c0,.16.03.17.08-.02-.06.22.1,1.03-.16.86.04.53-.05.7-.08,1.33-.05-.5-.27.51-.24,0-.12.28.02.37,0,.61-.1.2-.22.08-.23-.16v.29s-.02-.01-.02-.01l.03.25c-.13.23-.15.02-.23.28l.11.08-.11.16c.07-.05.06.11.03.3h-.03s-.03.22-.03.22c-.02-.24-.08.2-.14.08-.05.19-.05.2-.12.55l.1-.04c-.04.48-.13-.01-.23.35h.1c-.31.48-.15.93-.38,1.28.05-.23-.09-.21-.06-.19-.07.34-.25.88-.26,1.25-.18.08-.23.09-.41.42-.08.25-.09.29-.04.41-.14.22-.23.71-.34.68.06.09-.1.21-.09.37h-.05s.1.03.1.03c-.38.34-.19.77-.56,1.11v-.08s-.04.19-.04.19c-.05,0-.04-.07-.09-.11-.13.27-.28.53-.41.8l.15-.12c-.08.17-.05.33-.2.5.04-.39-.15.26-.28.25l.06-.19q-.12.23-.02.26c-.14.32-.28.11-.34.44l.11-.19c.08-.03.08.15,0,.28-.03.02-.13.09-.08-.01-.11.25-.37.57-.39.69-.1.11-.14.03-.12-.05-.24.53-.16.2-.4.73l-.04-.04-.05.2c-.09.05-.17.11-.26.16l.12-.04c-.1.16-.14.28-.3.43l-.02-.12c-.28.46-.48.4-.71.86-.03.02,0-.06,0-.1-.19.44-.33.18-.52.63,0-.04-.06-.03-.07-.06l-.1.19-.07-.09v.24s-.16.02-.16.02v.1c-.33.01-.44.35-.77.45l.14.07c-.35.77-1.41,1.08-2.08,1.73l-.05-.1-.23.34c-.22.05.04-.15-.04-.16-.29.29-.04.24-.42.53-.25.07.03-.12.1-.21-.33.3-.87.69-1.18.78,0,.02,0,.04.01.04-.23.2-.62.31-.9.46-.01-.05.05-.1.12-.14-.11.04-.27.08-.34.17l.07-.14c-.23.08-.64.34-.74.26.04.03.06.12-.14.19-.17-.12-.53.26-.89.28.03-.05.26-.14.19-.12-.18.01-.3.14-.43.23l.03-.08c-.25.11-.5.21-.76.3-.15-.14-.75.19-.72.05-.29.05.26.03-.1.12-.11-.06-.33.1-.33-.02l.04-.02-.25.05.14-.14c-.21.06-.36.2-.36.29-.22-.03-.52.07-.63-.02l.08-.04c-.59.13-1.03-.18-1.49.06-.04-.01-.04-.04.04-.05l-.38.03.08-.09-.62.19v-.06c-.42.02-1.07.11-1.62.19l.08-.04c-.59.16-.58,0-1.02.13.01-.02.03-.02.04-.03l-.4.05.08-.07c-.28.16-.87-.04-.68.04-.16.08-.44.2-.48.27-.44.08-.12-.06-.4-.05-.32.06-.36.16-.8.2v-.06c-.2.06-.32.13-.59.2l.08-.05c-.42.22-.61-.02-.9.32-.2,0-.55.15-.56.03-.54.24-.95.43-1.47.66-.15-.14-.11.06-.48.08l.06.09c-.75.31-1.71.46-2.5.91l-.07-.08-.11.18c-.88.41-1.98,1.03-2.62,1.48-.18.19-.43.51-.77.72l.03-.04c-.53.46-1.07.96-1.69,1.42,0-.06-.07-.04-.02-.11-.06.2-.33.3-.45.41l.19-.07c-.1.22-.38.36-.51.37l-.17.31s-.06.02-.07.01v.08s-.22.02-.22.02c-.04.08-.33.4-.34.58-.05-.01-.29.17-.14,0l-.87.76.16-.08c.09.06-.12.34-.29.42.12-.22-.08-.12-.2-.11-.08.14.16-.02.14.08-.1.18-.38.46-.49.49l.06-.1c-.17.19-.38.12-.56.28-.13.2-.3.23-.16.35-.24.21-.17-.03-.26.02-.07.16-.47.34-.56.28-.01.32-.76.28-.72.51l-.28-.02c.02.06.02.19-.16.29-.2.01-.19-.1-.27-.13l-.05.24c-1.11.15-2.57.5-3.85.25-.56.04-1.3.06-1.96-.06h.08s-.66-.18-.66-.18l.47.18c-.15,0-.27.02-.41,0-.72-.22-1.66-.55-2.59-.71-.65.06-.32-.32-.93-.33.05,0,.08-.03.13-.04-.62-.11-.96-.2-1.6-.28.15-.2-.39-.14-.29-.24l-.08.07c-.11-.11-.41-.25-.34-.3h-.31s.02-.09.02-.09c-.34-.14-1.11-.38-1.21-.65-.91-.21-2.2-.89-3.2-1.46-.18,0-.48-.16-.72-.27l-.19-.24c-.25-.1-.57-.11-.75-.3,0-.01.02-.02.04-.01-.25-.12-.44-.29-.72-.33-.25-.16-.47-.37-.33-.42-.13.16-.52-.35-.52-.35,0,0-.2-.14-.55-.38-.35-.24-.85-.59-1.45-1.03-1.2-.88-2.79-2.14-4.37-3.57-1.59-1.45-3.21-2.99-4.25-4.44-1.09-1.44-1.56-2.76-1.83-3.57-.11-.11-.16-.42-.28-.31-.02-.25.16-.34.06-.4-.09.33-.25-.14-.4.19v-.23c-.08-.05.05.31-.07.25l.18.07c-.04.18-.08.27-.14.34.09.17.31.26.26.66l-.02-.11c.05.32-.1.21-.12.28v-.07c-.03.1-.05.19-.06.29.02-.22-.16-.55-.13-.37,0,.41.03-.11.09.19.03.18-.07.15-.13.15l.08.33c-.09,0-.04-.22-.1-.07.06.14.11.27.19.4-.19.14.22.42.11.67-.16-.28-.06.05-.14.03.09.25.2.48.31.72,0,.08-.15-.16-.09-.06,0,.16.15.2.18.27-.02.09.27.52.13.57.19.51.27.11.46.57-.04.1-.23-.32-.19-.09l.31.42c-.06-.02-.17,0-.26-.18.67,1.23.83,2.12,1.79,3,.05.2-.14-.05-.28-.1.74.59.75,1.1,1.33,1.65l.07-.05c.61.96,1.7,1.74,2.59,2.62l-.08-.14c.19.05.4.22.59.32,0,.05-.23.05.07.25-.04-.07-.14-.19-.07-.2.69.86,2.53,2.19,3.96,3.23,2.03,1.26,4.22,2.67,6.39,3.6-.33-.15-.1-.27.12-.12.52.65,1.19.46,1.79.99,1.31.4,2.35,1.13,3.68,1.25v.11c.17.1.24.05.43.1v.03c.44.17,1.03.23,1.29.34l.04-.11c.28.06.12.12.43.13l-.02.05.36-.03c-.07.19.79.18,1.01.3.38.03,1.1.05,1.67.13.1.11.81.17,1.27.22.9,0,2.19-.12,3.35-.34l-.05-.12.29-.08s.05.03,0,.06c.27.1.67-.24.93-.22-.19-.07-.21.05-.38.1-.26.01-.06-.18.28-.22v.03s.2-.13.2-.13c.06.09.27.06.33.14.96-.39,1.5-.88,2.39-1.41-.02.16.58-.45.53-.17.45-.43-.18-.07-.04-.35.14-.1.24-.25.31-.21-.03.09.18,0,.09.11l.3-.26s-.01.06-.04.1c.55-.6,1.16-.84,1.58-1.4-.01-.09-.21.17-.23.09.4-.58.53-.33.91-.84l-.03.16c.1-.19.1-.31.4-.48.12.05-.14.26-.21.41.17-.16.56-.56.36-.52.17-.21.31-.2.44-.27-.02-.02-.23.11-.16-.04.31-.19.72-.55,1.06-.81.02.02.07.04.05.07.18-.33.3-.11.66-.42Z"/>
    <path class="cls-1" d="M140.87,129.84c-.06.03-.12.05-.18.08.01.02.02.05-.05.12.08-.06.16-.12.24-.19Z"/>
    <path class="cls-1" d="M132,132.02s-.04.02-.06.04c.04,0,.06-.02.06-.04Z"/>
    <path class="cls-1" d="M129.91,132.44c.15-.04,0-.06-.07-.08,0,.02,0,.05.07.08Z"/>
    <path class="cls-1" d="M144.91,126.52s-.02.06,0,.07c.02-.05.02-.06,0-.07Z"/>
    <path class="cls-1" d="M151.92,114.36s-.02.03-.03.05c.01,0,.02-.03.03-.05Z"/>
    <path class="cls-1" d="M151.53,115.06s-.02.08-.03.16c.03-.06.03-.11.03-.16Z"/>
    <path class="cls-1" d="M142.22,128.72s-.08.07-.11.11c.07-.05.09-.08.11-.11Z"/>
    <polygon class="cls-1" points="151.48 115.37 151.41 115.56 151.43 115.57 151.48 115.37"/>
    <path class="cls-1" d="M152,114.12c-.02.07-.05.17-.08.24.06-.09.08-.16.08-.24Z"/>
    <path class="cls-1" d="M148.12,122.41v.02c-.05.15-.02.06,0-.02Z"/>
    <polygon class="cls-1" points="151.4 116.25 151.38 116.28 151.4 116.34 151.4 116.25"/>
    <path class="cls-1" d="M152.26,113.31s0,.07,0,.1c.01-.03.02-.06.04-.11-.02,0-.03,0-.04,0Z"/>
    <path class="cls-1" d="M149.75,119.93c-.01-.07-.03-.1-.05-.11-.03.06-.03.11.05.11Z"/>
  </g>
  <g>
    <path class="cls-1" d="M71.21,131.59s0-.03,0-.05c0,.02,0,.04,0,.05Z"/>
    <path class="cls-1" d="M65.54,131.32l.07-.02s-.06,0-.07.02Z"/>
    <path class="cls-1" d="M74.55,130.84s0,0,0,.01c.05-.02.12-.04.23-.08l-.22.07Z"/>
    <path class="cls-1" d="M54.05,127.28l.07.03s-.05-.03-.07-.03Z"/>
    <path class="cls-1" d="M60.73,130.16s-.07.01-.1,0c.04.02.08.02.1,0Z"/>
    <path class="cls-1" d="M76.72,131.09l-.13-.02s.07.04.13.02Z"/>
    <path class="cls-1" d="M79.57,128.7s0,0-.02,0c0,0,0,0,.02,0Z"/>
    <path class="cls-1" d="M78.28,129.37s-.04.06-.06.09c.03-.03.08-.06.06-.09Z"/>
    <path class="cls-1" d="M78.19,129.51l.03-.04s-.04.03-.03.04Z"/>
    <path class="cls-1" d="M61.35,114.02c.09.03.18,0,.28-.03l-.28.03Z"/>
    <path class="cls-1" d="M44.66,121.39h.04s-.03,0-.04,0Z"/>
    <path class="cls-1" d="M61.66,113.41l.06.03s-.04-.03-.06-.03Z"/>
    <path class="cls-1" d="M74.99,132.1c-.07.11-.32.1-.29.17.11-.05.28-.05.29-.17Z"/>
    <path class="cls-1" d="M41.01,122.04l-.06-.04s.04.03.06.04Z"/>
    <path class="cls-1" d="M61.66,113.41l-.07-.04s0,.03.01.04c.02,0,.04,0,.06,0Z"/>
    <polygon class="cls-1" points="41.18 117.99 41.18 117.99 41.19 118.01 41.18 117.99"/>
    <path class="cls-1" d="M41.36,118.12v.02s.01,0,0-.02Z"/>
    <path class="cls-1" d="M61.63,113.99l.16-.02c-.06,0-.11,0-.16.02Z"/>
    <path class="cls-1" d="M47.41,116.78l-.06.03s.05-.02.06-.03Z"/>
    <path class="cls-1" d="M61.16,130.33l.05.03s.01-.03-.05-.03Z"/>
    <polygon class="cls-1" points="56.1 130.67 56.09 130.67 56.09 130.67 56.1 130.67"/>
    <path class="cls-1" d="M56.37,130.68c-.07-.04-.19-.04-.27,0,.07.03.15.04.27,0Z"/>
    <path class="cls-1" d="M55.6,130.43l.02.02s-.02-.02-.02-.02Z"/>
    <polygon class="cls-1" points="60.4 132.29 60.4 132.28 60.4 132.29 60.4 132.29"/>
    <path class="cls-1" d="M59.42,132.01s-.03-.04-.06-.05c.01.02.03.04.06.05Z"/>
    <polygon class="cls-1" points="53.2 129.59 53.21 129.59 53.2 129.59 53.2 129.59"/>
    <path class="cls-1" d="M44.62,125.17c.82.53,1.95,1.11,2.74,1.66.26-.02.52.14.8.27l-.08.19.25.08c.06.11-.19-.07-.07.09l.15-.06c-.02.08.54.37.1.28l.86.5c.19.12.2-.08.38.08.01.08-.1,0-.11.07.57.49.93.06,1.48.46h-.06c.13,0,.32.11.33.09.02-.22-.16.04-.28-.16.1-.14.27.04.32-.08.11.13.24.08.37.13.16.2.5.28.59.48.13,0,.32-.09.54.01.1.2-.09.1.1.25l.08-.07c.17.1.13.11.11.15.19.09.22-.05.43.12l-.18.03c.19.05.26.1.5.22-.03.05-.13,0-.19-.05.07.2.26.05.32.1,0-.05-.17-.15-.04-.2.12.07.32,0,.36.15l-.17.03c.29.05.19-.05.47.11-.02,0-.02.03-.04.04.24-.04.44.17.72.3h-.06c.13.02.22-.04.28,0-.14-.12-.08-.13-.06-.23.15.24.39-.04.7.19-.03.05-.14.08-.21-.01-.18.11-.25.24-.49.22.15.02.31.06.25.11l.1-.13c.08.03.14.06.2.08.07-.08-.1-.21.11-.2.23.03.05.19.11.14.31.05.18-.11.44.04-.03,0-.1,0-.11-.02.17.14.49.16.48.36-.04.03-.07.08-.14.04v-.03c-.25.04.21.04.08.17.02-.1.29.03.41.09v-.12c.54-.17-.1.21.33.32.29.02-.09-.07.1-.09.17.08.2.21.49.25.06.07.19.18.16.31.18,0,.47.22.61.13-.24-.2-.32.04-.59-.23l.13-.09c.22.08.53.11.67.21-.02-.03-.03-.07,0-.09.33.06.46-.04.76.09,0,.12-.17.05-.3.02.17.15.21.07.51.2-.01.1-.21-.07-.27.02l.36.07v.02c.09-.15.26.09.48.1.51.14.64-.07.95-.13.06.06.08.11.03.15-.11-.1-.1-.04-.15,0,.17.03.34.25.22.3.29.02-.08-.11.1-.12l.37.1c-.02-.1-.15-.15.06-.16.17.02.24.05.46.1-.04.04.04.14-.12.1.1.05.26.09.34.02-.22-.13.4,0,.25-.16l.22.12c-.05-.01-.07.04-.15.01.04.14.2,0,.28,0,.08.04.29.09.3.15.08-.02.26.03.28.11.12,0,.02-.08.06-.12l.38.07c0,.08.01.28-.05.3.15-.04.08-.21.3-.17-.15.12.28.15.07.29.11.12.48.17.68.14.14-.1-.21-.08-.18-.2.57,0,.62-.29,1.03-.21l-.1-.04c.26-.05.23-.04.38-.12-.08.14.27.41.69.39.04-.07-.23-.14-.16-.26h.28s-.01.02-.05.04c.25-.04.46.19.54.03l.26.21-.1-.09c.03-.07.31-.09.37-.12.28-.09.39-.03.55.05-.05-.06-.18-.19.04-.22,0,.24.48.06.48.18.09-.01.26.05.26-.05v.15c0-.2.33-.22.58-.29-.02.28.27-.05.42.18.02-.19.44-.15.46-.31.19-.04.2.13.26.18l.08-.08c.11.07.48,0,.71.02l.16-.21.09.05s.18-.11.06-.15l.11-.02c-.04-.18.14-.08.33-.21.06.01.06.06.02.1.11-.03.09.07.16.11-.09-.02.29-.42-.02-.42-.04-.06.11-.16.22-.16l.11.14.07-.2c.15-.07.25,0,.38-.03-.13.05-.2.4.15.27-.17.08-.23.2-.32.26.07-.02.12-.01.02.09.26-.14.06-.12.32-.24.03.14.12.16.38.12l-.21-.04s.01-.04.02-.05c-.07,0-.1,0-.13-.05.05-.02.25-.28.32-.21-.34-.11.4-.34.18-.4.01-.05.19-.13.24-.07-.18.19.23.09.23.19.06-.07-.21-.03-.12-.12.13-.06.25-.02.34-.01l-.04.05.22-.03c0-.08-.24-.02-.08-.14.06,0,.23-.11.25-.06-.04.13.07.22-.07.31.13-.07.53-.28.31-.32l.15-.07c-.12,0-.44.02-.14-.14v.03s.17-.21.17-.21l.12.02s0-.08.08-.12c.04.03.12,0,.14.06.22-.12.16-.18.17-.23.12-.08.18-.08.16.03.18-.08.46-.26.61-.28.18-.2-.06,0,.01-.16.33.1.77-.4,1.08-.68-.23-.1.08-.09,0-.3-.03.11.42-.12.17.16l.16-.16c.2,0-.23.31.05.29.19-.18.17-.45.44-.6.03.18.14-.2.2-.02,0,.08-.08.13-.14.2h.06c.45-.37,0-.26.14-.54.23-.25.28-.11.34-.07.06-.02.16-.16.19-.25-.08.22-.34.21-.34.07.23.02.36-.36.37-.47-.47.22-.24.24-.69.42,0,.08.11.19-.13.33.07-.17-.07-.06-.12-.04.1.03-.11.16-.14.24-.1,0-.03-.27-.25-.11l.1.2c-.1.04-.07-.15-.21.03.02-.16-.14-.11.07-.33-.39.09-.35.43-.53.67.01-.03,0-.05.01-.08-.01.08-.1.14-.16.2-.18.07.06-.17-.02-.18l-.24.18s-.02,0-.02,0c-.05.07-.09.13-.15.1.03-.11.02-.19.03-.27l-.16.31c-.01-.08-.28.04-.13-.12l-.36.28-.11-.1c-.08.08-.06.11.05.05-.14.06-.46.58-.53.29-.25.29-.39.3-.74.57.23-.27-.41.02-.13-.19-.21.04-.18.19-.32.28-.16,0-.16-.15-.04-.27l-.15.14v-.03s-.13.14-.13.14c-.19,0-.09-.12-.27-.06v.13s-.13-.02-.13-.02c.07.04-.02.1-.14.16v-.03s-.15.08-.15.08c.12-.13-.15.03-.11-.08-.13.05-.13.05-.36.15l.07.07c-.28.18-.06-.12-.3-.04l.05.09c-.4-.03-.58.28-.88.26.15-.07.07-.17.08-.14-.22.11-.6.17-.81.35-.12-.12-.15-.16-.41-.18-.18.05-.2.06-.24.16-.18-.02-.5.11-.53.01-.03.09-.16,0-.25.1l-.03-.04.03.1c-.34-.18-.52.19-.85.04l.05-.03-.13.05s.03-.07.03-.13l-.62.03.13.07c-.13.02-.21.12-.37.07.24-.16-.21,0-.25-.11l.13-.05q-.18.02-.16.12c-.24.04-.17-.18-.38-.07h.16c.05.06-.06.15-.17.14-.03-.02-.1-.06-.02-.07-.19.04-.47-.01-.55.03-.1-.03-.07-.11-.01-.13-.4.08-.18-.03-.58.05v-.06s-.13.06-.13.06l-.19-.13.07.08c-.13,0-.22.04-.37,0l.07-.08c-.37.03-.41-.18-.77-.09-.02-.02.03-.04.06-.05-.34.1-.23-.17-.57-.05.02-.03,0-.07,0-.09l-.15.04.03-.11-.14.15-.07-.13-.06.05c-.13-.24-.37-.11-.56-.31v.15c-.58.21-1.19-.39-1.86-.4l.04-.11-.3.07c-.12-.12.11-.08.08-.14-.3,0-.16.14-.5.09-.15-.12.08-.07.17-.09-.32-.02-.8-.08-1-.21,0,.01-.03.03-.02.04-.22,0-.48-.14-.7-.2.02-.05.08-.04.14-.03-.08-.03-.18-.1-.26-.07l.11-.07c-.17-.07-.53-.09-.53-.22,0,.05-.03.13-.18.08-.03-.19-.43-.06-.64-.24.04-.03.22.02.17,0-.1-.09-.24-.04-.36-.03l.06-.06-.59-.11c-.02-.19-.53-.17-.45-.28-.19-.08.14.14-.12.06-.04-.09-.24-.05-.19-.16h.03s-.18-.06-.18-.06l.15-.06c-.16-.04-.31.03-.35.1-.12-.11-.34-.14-.36-.26h.06c-.42-.11-.53-.56-.91-.51-.02-.02,0-.05.04-.03l-.24-.11.09-.05-.45-.05.03-.05c-.26-.13-.67-.3-1.01-.43h.06c-.4-.09-.33-.21-.62-.28.02,0,.03-.01.04,0l-.24-.11.08-.02c-.23.02-.43-.4-.37-.25-.12,0-.32-.03-.38.02-.26-.12-.03-.1-.17-.22-.18-.1-.26-.02-.49-.2l.03-.05c-.12-.05-.21-.06-.38-.14h.06c-.32-.03-.25-.33-.58-.22-.09-.1-.32-.18-.25-.28-.36-.11-.63-.24-.98-.38.04-.19-.08-.03-.22-.24l-.04.1c-.47-.25-.84-.79-1.35-1.06l.04-.09-.16.03c-.49-.39-1.15-.85-1.55-1.14-.16-.05-.43-.09-.62-.27h.03c-.4-.2-.81-.46-1.17-.8.05-.02.03-.07.09-.06-.16.02-.23-.17-.32-.23l.05.13c-.17,0-.27-.2-.28-.3l-.24-.05s-.01-.04,0-.06l-.06.02v-.18c-.07-.01-.32-.17-.47-.12.01-.05-.13-.2.01-.12-.2-.18-.41-.35-.6-.54l.07.12c-.05.09-.28-.02-.34-.14.18.04.1-.1.1-.2-.12-.03.01.13-.07.14-.15-.04-.39-.2-.42-.28l.09.02c-.17-.09-.12-.28-.26-.4-.18-.05-.22-.18-.31-.03-.2-.13.01-.15-.04-.22-.14-.01-.35-.28-.32-.37-.27.1-.41-.5-.6-.37-.01-.07-.06-.16-.05-.21-.04.04-.14.13-.2.11.01-.07.11-.12.15-.17-.07.04-.13.07-.2.1.01-.15-.07-.25-.1-.31-.04-.06-.1-.13.07-.1-.06-.03-.16-.08-.25-.14-.09-.06-.18-.12-.08-.08l.06.03.19.08h0s-.01,0-.01,0l-.26-.12s-.12-.07-.09-.06h.02c.32.14.51.25.48.15-.14-.24.23.22.14.04.01.02.03.06.04.08,0-.04,0-.07.02-.11.01-.02.03-.04.05-.07.02-.03.02-.06.17-.1-.04.25.32-.02.29.11l.03-.1c.11.05.37.03.34.11l.2-.15.03.1c.29-.03.88-.2,1.07-.02.66-.29,1.75-.46,2.58-.67.09-.11.33-.19.52-.25l.24.06c.18-.09.33-.3.53-.28,0,.01,0,.03-.01.04.18-.08.38-.08.53-.24.21-.06.43-.06.4.07-.04-.2.45-.11.45-.11,0,0,.66-.19,1.7-.49,1.02-.29,2.39-.73,3.8-1.08,1.41-.36,2.87-.67,4.12-.74,1.25-.14,2.29-.08,2.95-.17.11-.07.35-.08.3-.21.19,0,.21.2.28.11-.22-.12.16-.22-.04-.4l.16.02c.05-.06-.24.02-.16-.09l-.1.17c-.11-.06-.17-.11-.2-.19-.14.04-.28.26-.52.09h.08c-.22-.04-.11-.14-.15-.19h.05s-.17-.13-.17-.13c.13.1.41.02.28,0-.26-.12.06.06-.15.03-.13-.02-.07-.11-.05-.17l-.23-.05c.02-.08.15.05.08-.07-.1,0-.21,0-.31.03-.02-.22-.34.07-.45-.15.22-.03,0-.08.03-.14l-.54-.05s.15-.05.07-.05c-.1-.07-.17.03-.23.03-.04-.07-.4-.04-.38-.17-.37-.09-.16.19-.5.11-.05-.09.27-.02.12-.11l-.36.04s.07-.14.2-.13c-.97-.14-1.56-.5-2.45-.28-.14-.09.08-.08.16-.16-.64.22-.95-.06-1.51.05v.09c-.82-.11-1.69.29-2.56.42l.12.03c-.09.11-.27.18-.4.26-.03-.04.05-.21-.18-.1.06.01.17.02.15.06-.78-.01-2.25.53-3.41.79-1.51.56-3.19.92-4.63,1.26.22-.06.17.17,0,.16-.53-.25-.79.23-1.3.04-.44.11-.77.14-1.26.11-.79.02-1.62.01-2.56-.04l-.15-.12c-.4-.13-.41-.06-.75-.13l-.03-.03c-.93-.23-1.75-.3-2.33-.47l.24.17c-.44-.08-.5-.19-.77-.18l-.14-.09c-.08.02-.15.04-.21.07-.4-.25-.94-.28-1.43-.39.05.06.07.1.03.1.16.15.38.36.57.57.21.22.54.54.7.75-.15,0,.42.61.68.97.77.79,1.77,1.85,2.64,2.79l.14-.05.24.23s-.02.04-.07.01c.03.24.6.52.7.75-.01-.18-.15-.17-.28-.31-.13-.22.18-.09.37.19h-.03s.23.14.23.14c-.07.08.05.26,0,.35.48.47.61.5.86.67.23.15.45.31.68.55-.13.04.37.29.14.35.35.2.06-.16.29-.15.08.07.2.11.17.18-.07,0-.01.15-.09.11l.21.16s-.05.01-.08,0c.48.26.64.72,1.09.93.07-.03-.14-.14-.06-.17.47.19.25.37.67.57l-.13.02c.16.04.26.01.4.22-.04.12-.22-.05-.34-.08.12.11.47.34.44.18.18.09.18.21.24.3.02-.02-.1-.17.03-.15.17.21.51.46.77.67-.02.02-.03.07-.06.06.3.04.13.23.44.41Z"/>
    <path class="cls-1" d="M60.53,132.35l-.12-.05s-.02.05-.09.06h.21Z"/>
    <path class="cls-1" d="M54.67,130.13s-.04,0-.06.01c.03,0,.05,0,.06-.01Z"/>
    <path class="cls-1" d="M53.21,129.69c.11.02.03-.05,0-.1-.01.02-.02.05,0,.1Z"/>
    <path class="cls-1" d="M64.07,132.85s-.04.02-.04.04c.03-.02.04-.03.04-.04Z"/>
    <path class="cls-1" d="M73.94,132.46s-.02,0-.04,0c0,0,.02,0,.04,0Z"/>
    <path class="cls-1" d="M73.36,132.44s-.06.02-.1.04c.05,0,.08-.02.1-.04Z"/>
    <path class="cls-1" d="M61.73,132.4s-.07,0-.11,0c.06.01.09,0,.11,0Z"/>
    <path class="cls-1" d="M73.15,132.54l-.14.02s0,.01,0,.02l.13-.04Z"/>
    <path class="cls-1" d="M74.11,132.42c-.05.01-.13.03-.17.04.08.01.13,0,.17-.04Z"/>
    <path class="cls-1" d="M67.68,133.06h-.01c-.11.05-.04.03.01,0Z"/>
    <polygon class="cls-1" points="72.6 132.88 72.58 132.88 72.55 132.92 72.6 132.88"/>
    <path class="cls-1" d="M74.7,132.27s-.05.02-.06.04c.02,0,.05,0,.08-.01-.01-.01-.02-.02-.02-.03Z"/>
    <path class="cls-1" d="M69.76,133.19s.05-.08.05-.1c-.05,0-.07.03-.05.1Z"/>
  </g>
  <g>
    <path class="cls-1" d="M63.94,122.37s.01.03.02.05c0-.02-.02-.03-.02-.05Z"/>
    <path class="cls-1" d="M65.13,122.12v.03s0-.02,0-.03Z"/>
    <path class="cls-1" d="M63.27,122.61h0s-.02,0-.05,0h.05Z"/>
    <path class="cls-1" d="M67.51,121.57h-.01s.01,0,.01,0Z"/>
    <path class="cls-1" d="M66.08,121.83s0-.03,0-.04c0,0-.02,0,0,.04Z"/>
    <path class="cls-1" d="M62.33,121.87l.06.05s-.04-.05-.06-.05Z"/>
    <path class="cls-1" d="M61.88,122.57h.01s0,0-.01,0Z"/>
    <path class="cls-1" d="M62.3,122.64s0-.02,0-.04c0,0-.01.01,0,.04Z"/>
    <path class="cls-1" d="M62.3,122.58v.02s0-.01,0-.02Z"/>
    <path class="cls-1" d="M76.17,120.81s.05-.05.08-.09l-.08.09Z"/>
    <path class="cls-1" d="M69.62,121.1v.03s0-.02,0-.03Z"/>
    <path class="cls-1" d="M76.34,120.17v.02s0-.02,0-.02Z"/>
    <path class="cls-1" d="M62.56,121.49c-.02-.07.07-.02.03-.09-.01.02-.07,0-.03.09Z"/>
    <path class="cls-1" d="M69.65,118.23h.01s-.01,0-.01,0Z"/>
    <path class="cls-1" d="M76.34,120.17v-.02s-.01.03-.02.04c0,0,.02-.02.02-.02Z"/>
    <polygon class="cls-1" points="71.86 120.88 71.86 120.88 71.85 120.89 71.86 120.88"/>
    <path class="cls-1" d="M71.98,120.99l-.02.02s.02,0,.02-.02Z"/>
    <path class="cls-1" d="M76.25,120.73l.04-.05s-.03.03-.04.05Z"/>
    <path class="cls-1" d="M73.26,120.89s0,0-.01,0c0,0,0,0,.01,0Z"/>
    <path class="cls-1" d="M65.98,121.82h-.02s.01.02.02,0Z"/>
    <polygon class="cls-1" points="66.15 119.62 66.15 119.62 66.15 119.62 66.15 119.62"/>
    <path class="cls-1" d="M66.13,119.73s.03-.05.02-.11c-.02,0-.03.03-.02.11Z"/>
    <path class="cls-1" d="M66.27,119.62h0s0,0,0,0Z"/>
    <polygon class="cls-1" points="65.2 119.88 65.2 119.88 65.2 119.88 65.2 119.88"/>
    <path class="cls-1" d="M65.4,119.78s.02.02.03.03c0-.01-.02-.02-.03-.03Z"/>
    <polygon class="cls-1" points="66.72 119.24 66.72 119.25 66.72 119.25 66.72 119.24"/>
    <path class="cls-1" d="M68.59,118.18c-.2.08-.43.3-.64.3,0,.16-.07.18-.13.23l-.06-.2-.04.08c-.04-.05.03-.05-.03-.11v.13c-.01-.07-.14-.01-.09-.18-.07.02-.14.03-.21.05-.05,0,.02.17-.05.14-.03-.05,0-.04-.02-.11-.19-.1-.07.43-.23.38v-.03c0,.06-.05.07-.04.09.08.19,0-.11.07-.01.05.17-.03.11.01.23-.05-.05-.04.05-.07.07-.08-.09-.13,0-.2-.11,0,.06.02.23-.03.25-.08-.12-.03-.13-.1-.16l.02.1s-.05-.03-.06-.08c-.04,0,0,.14-.07.1v-.1c-.03.05-.05.04-.11.05-.02-.06,0-.06.03-.05-.08-.13-.03.08-.05.07.02.04.06.05.08.15-.03,0-.01.15-.07.04v-.1c-.03.09,0,.13-.07.12,0,0,0-.03-.01-.05,0,.14-.09.04-.16.06v-.03s0,.13,0,.13c.05.04.05.07.09.16-.1-.14,0,.21-.11.14-.02-.05-.02-.13.02-.08-.03-.17-.08-.31-.06-.4-.02.05-.04.08-.06.01l.04.15s-.03,0-.05.01c.03.1.09.14.07.22-.03.06-.08-.14-.06-.07-.04.08.03.17-.04.14,0-.01,0-.04.01-.03-.06-.05-.09.06-.17-.11,0-.04-.03-.1,0-.09v.03c0-.15-.02.05-.06-.12.04.09-.03.09-.06.09l.05.11c.03.36-.08-.22-.15-.14-.03.09.03.02.03.11-.04,0-.1-.09-.13-.03-.03-.04-.09-.08-.14-.2-.01.06-.12-.01-.1.11.1.08,0-.15.14-.02l.03.13s-.08.1-.13.07c.02.02.03.05.04.08-.05.07-.02.2-.1.19-.05-.1,0-.1.01-.12-.08-.07-.05.01-.12,0-.04-.09.05-.01.01-.11l-.06.06v-.02c.05.16-.07,0-.09.07-.1.04-.03.26-.03.41-.03-.04-.06-.07-.07-.12.06.06.03,0,.02-.04-.03.03-.14-.12-.15-.19-.03.07.06.07.04.14l-.08.02c.04.08.08.08.07.16-.02.03-.04.03-.09.04-.01-.04-.07-.11-.03-.12-.03-.02-.07,0-.04.07.08.05-.04.1.05.21l-.08-.05s-.01-.06.01-.05c-.07-.11-.02.05-.03.07-.03-.02-.07,0-.1-.05,0,.04-.05.03-.08-.03-.01.03.04.08.05.12l-.08.02c-.04-.06-.13-.25-.13-.28,0,.07.08.2.04.21-.04-.14-.1-.07-.14-.24-.07-.08-.14-.05-.16,0,.03.11.07.04.12.14-.09.09.05.38-.05.36l.03.02c-.02.08-.02.07,0,.17-.05-.13-.23-.32-.29-.25.03.07.11.1.15.21l-.04.05s-.01-.03-.02-.05c-.02.07-.17-.12-.11.04l-.14-.16.06.07c.03.07-.01.11-.01.14-.01.1-.06.05-.13-.01.04.05.12.15.09.19-.11-.2-.13-.03-.18-.14-.02.01-.08-.04-.03.05l-.07-.13c.09.18.03.2,0,.26-.12-.24-.04.05-.18-.16.08.17-.05.11.03.25-.03.03-.11-.12-.15-.17l.02.07c-.06-.07-.14-.04-.2-.07l.05.16-.05-.06s0,.08.05.12h-.02c.09.16,0,.06,0,.15-.02-.02-.04-.06-.05-.08-.02.01-.06-.07-.1-.12.04.03.1.32.19.35.04.06.04.12,0,.11l-.1-.13.07.16s-.08-.04-.12-.04c.02-.02-.11-.3-.17-.25.02-.04,0-.13,0-.16-.02,0-.03,0-.05-.08-.02.07.04.09,0,.14-.07-.12-.11-.15-.18-.17l.09.07s.01.03.01.04c.02,0,.04.02.07.07-.01,0,.04.19-.02.12.17.16,0,.2.11.3.02.04-.01.07-.05,0-.02-.12-.12-.12-.17-.21,0,.04.09.07.1.13-.02.02-.09-.04-.12-.07v-.03s-.08-.03-.08-.03c.03.06.1.08.09.13-.03-.02-.04.03-.07-.02-.04-.09-.12-.2-.11-.24-.02.02-.09.09.02.18h-.03c.05.05.16.11.12.17l-.02-.02.02.12-.06-.05s.03.06.02.07c-.03-.03-.05-.04-.08-.09-.04.04,0,.09.02.13-.02.03-.04,0-.08-.07-.04,0-.09.06-.15.01,0,.08.03.02.06.12-.18-.18-.2.02-.25.1.15.17,0,.03.1.21-.03-.07-.17-.09-.14-.19l-.02.05c-.1-.08,0-.12-.13-.23-.04.04.08.25-.02.22-.08-.14,0,.07-.1-.08-.02-.05,0-.05,0-.07l-.03-.02c-.12.03.08.17.1.29-.04.06-.12-.07-.17-.12-.03-.02-.04.02-.03.07-.02-.1.12.03.17.12-.13-.13-.09.05-.07.11.19.09.06-.03.26.08-.02-.05-.12-.18-.04-.16.02.08.05.07.08.09-.06-.07,0-.05,0-.09.06.05.1.19.17.19l-.12-.18s.09.13.09.07c.05.11.11.14.08.2.17.11.03-.15.04-.24,0,.01.02.04.02.05-.02-.05,0-.06,0-.08.06.02.03.1.07.14l.05-.04s.01.01.01.01c0-.03,0-.06.03-.02.03.06.06.13.08.18l-.03-.16c.04.06.11.07.11.14l.06-.08.09.12s-.01-.06-.04-.06c.04,0-.03-.29.12-.05,0-.14.04-.12.08-.23.02.15.16.1.13.19.07.03,0-.11,0-.14.06.04.13.16.13.22v-.08s.01.02.01.02l-.02-.09c.07.05.09.12.13.12l-.06-.11.06.05s-.04-.08-.02-.1l.02.02v-.04c.03.08.06,0,.09.09.03,0,.03-.01.06-.06l-.05-.07c.02-.1.07.11.12.09l-.06-.08c.16.1.06-.15.17-.09-.02.04.05.13.04.11.02-.06.1-.08.08-.21.09.12.12.15.2.18.03-.03.03-.04,0-.12.06.03.08-.07.13.02-.04-.08.04,0,.02-.07l.03.04-.05-.09c.17.17.03-.16.19-.02v.03s0-.05,0-.05c.03.04.03.07.06.12l.12-.04-.06-.05s-.01-.12.04-.08c.03.16.04-.02.1.08v.05s.02-.03-.03-.11c.03-.05.12.15.11.04h-.03s-.06-.12-.04-.13c.01.01.05.04.04.06.02-.05.09-.03.09-.08.03.02.06.09.06.11.03-.12.04,0,.07-.12l.03.05v-.07s.09.09.09.09l-.05-.06s.02-.06.06-.05l.03.08c.05-.07.14.09.15-.05.01.01.01.04.01.06,0-.15.11.12.1-.06,0,.03.03.06.04.08v-.06s.05.1.05.1l-.05-.16.07.1v-.06c.11.19.08.02.19.15l-.07-.13c-.03-.32.3.04.36-.14l.04.11v-.15c.06.07.02.1.05.15.03-.08-.05-.17,0-.22.06.06.02.08.02.13.04-.08.1-.17.17-.13,0-.01-.01-.03-.02-.04.02-.06.09-.04.13-.06.02.05.01.06,0,.08.02,0,.05.03.05-.03l.02.1s.07-.11.12,0c-.02-.04-.05-.12-.02-.13.08.16.05-.1.13-.03,0,.04-.02.06-.01.06.04.03.03-.05.03-.11l.02.07.07-.13c.08.16.09-.06.13.06.04,0-.06-.06-.02-.1.04.06.03-.05.07.06h0s.03,0,.03,0l.02.11s0-.15-.02-.23c.05.05.07-.01.12.08v.03c.06-.07.23.25.23.04,0,.01.02.04,0,.04h.05s.02.07.02.07l.04-.15.02.05c.06,0,.13-.05.2-.09v.03c.05-.11.09.03.12-.05,0,.02,0,.03,0,.03l.05-.02v.06c0-.13.16.12.1.03,0-.06.02-.13,0-.2.05-.02.03.07.08.1.04,0,.02-.1.09-.07l.02.06s.03-.06.06-.08v.03c.02-.13.11.14.09-.11.04.04.07,0,.1.1.05-.09.09-.14.15-.21.06.18.01-.02.08.08l-.03-.1c.1-.04.27.18.37.11l.03.1v-.11c.12.02.28.02.38,0,.02-.06.04-.19.1-.16h0c.07-.06.16-.12.26-.08,0,.04.02.07.01.1,0-.11.05-.02.07-.02l-.04-.07c0-.1.06-.02.09.06l.02-.12s.01.02.02.04v-.05s.04.13.04.13c0-.03.06-.07.05-.2.01.04.06.07.03.1h.16s-.03-.03-.03-.03c-.02-.1.02-.17.05-.13-.02.09.02.14.05.21.01-.06-.03-.09-.03-.14.02-.07.07-.12.09-.07v.04s.06.13.1.12c.02-.09.05-.01.02-.19.04-.04.03.12.05.13,0-.09.08-.04.1.05,0-.26.14.08.12-.14l.05.12c0-.06-.02-.19.01-.21.04.06.04.16.06.22v-.22c.19.21.39.02.59.2.08-.05.17-.16.27-.13v.03s.09.05.09.05l-.08-.09s.03-.07.05-.07c.11.08.25.18.38.07.07-.25.06.22.14.04,0,.02,0,.06-.01.08.08-.08.13-.13.21-.27,0,.25.06,0,.05.12v-.1c.03.06.07.08.07.15l.04-.12v.1c.05,0,.16-.08.19.13.12-.16.32-.1.48-.06.02-.08.07-.09.11-.1l.03.12s.08-.19.11-.11c0,.01,0,.02,0,.03.04-.02.07.04.11-.07.04,0,.08.07.06.19.02-.2.08.03.08.03,0,0,.5.16,1.07.21.57.06,1.21.04,1.59-.44.04-.09.1-.15.11-.27.05-.03.02.15.05.05-.04-.08.08-.25.05-.38l.04-.02c.02-.07-.06.07-.03-.05l-.05.18s-.03-.07-.02-.14c-.04.07-.11.31-.15.19h.02s0-.13,0-.16h.01s-.02-.1-.02-.1c.02.07.1-.07.07-.06-.05-.06,0,.05-.04.06-.03,0,0-.09.01-.15h-.05c.02-.09.03,0,.03-.08l-.08.08c.03-.22-.09.09-.07-.12.05-.04.01-.07.03-.14h-.11s.04-.07.02-.06c0-.06-.04.05-.06.04,0-.06-.08-.01-.05-.16-.06-.11-.07.17-.12.08,0-.09.06,0,.05-.11l-.08.02s.04-.14.06-.11c-.17-.16-.21-.63-.41-.54,0-.11.03-.07.06-.13-.16.12-.16-.26-.28-.26v.09c-.14-.29-.36-.17-.53-.29l.02.06c-.03.08-.08.09-.11.12,0-.04.04-.18-.02-.15,0,.03.03.07.02.11-.14-.24-.48-.21-.74-.35-.36.05-.75-.13-1.1-.09.05,0,.03.21-.01.16-.11-.36-.19.06-.31-.18-.2.12-.4-.19-.58.09v-.1s-.04.03-.07.04v-.03c-.07-.04-.15.07-.2.03v.12s-.02-.09-.06-.02v-.06s-.05.11-.05.11c0-.2-.12,0-.16-.1-.05.04-.15.13-.23.1-.02-.1-.12-.09-.19-.14-.12.03-.3.08-.46.07l.02.13h-.04s0-.03,0-.04c-.05-.14-.09.06-.13-.03.04.12.03.01.06.01.04.06.02.19-.03.13v-.03s-.03.07-.03.07c-.02-.1-.05-.14-.07-.25-.13.04-.2.23-.35.2,0-.11-.1.04-.1-.16-.07.09.04.16.02.3-.02,0-.04.06-.06-.02,0-.05-.04-.12-.02-.14l-.05.02s0-.04,0-.06c-.1.13-.22-.09-.31.04,0,.07.04.01.05.08-.08.16-.11-.11-.19,0v-.1c-.02.07-.01.16-.08.09-.03-.11.03-.1.04-.16-.04,0-.12.05-.07.15-.04.05-.07-.05-.1-.08,0,.03.05.07.04.13-.07-.05-.16-.04-.23-.03,0-.03-.02-.07-.02-.09-.03.16-.07-.1-.14-.05Z"/>
    <path class="cls-1" d="M65.17,119.87h.03s-.02-.05-.02-.08v.08Z"/>
    <path class="cls-1" d="M66.44,119.46s0-.02,0-.03c0,0,0,.02,0,.03Z"/>
    <path class="cls-1" d="M66.68,119.16s.01.05.03.08c0-.02-.02-.05-.03-.08Z"/>
    <path class="cls-1" d="M64.61,120.46s0-.03-.02-.05c0,.02,0,.04.02.05Z"/>
    <path class="cls-1" d="M62.75,121.36s0,0,.02.01c0,0-.01,0-.02-.01Z"/>
    <path class="cls-1" d="M62.95,121.46s0,0,.01-.03c-.01,0-.01.01-.01.03Z"/>
    <path class="cls-1" d="M65.04,120.21s0-.02,0-.04c0,0,0,.02,0,.04Z"/>
    <polygon class="cls-1" points="62.96 121.4 62.99 121.39 62.98 121.37 62.96 121.4"/>
    <path class="cls-1" d="M62.72,121.37s.02-.01.04,0c-.03-.02-.04-.01-.04,0Z"/>
    <path class="cls-1" d="M64,120.92h0c0-.06,0-.03,0,0Z"/>
    <polygon class="cls-1" points="62.97 121.16 62.97 121.16 62.96 121.13 62.97 121.16"/>
    <path class="cls-1" d="M62.59,121.4s0-.01,0-.03h-.02s.01.02.02.03Z"/>
    <path class="cls-1" d="M63.54,120.97s.03.07.04.09c0,0,0-.03-.04-.09Z"/>
  </g>
  <g>
    <path class="cls-1" d="M131.03,141.83s-.03,0-.05,0c.03,0,.04,0,.05,0Z"/>
    <path class="cls-1" d="M132.13,148.18l-.03-.07s.02.07.03.07Z"/>
    <path class="cls-1" d="M129.13,138.45s0,0,.02,0c-.04-.05-.09-.11-.17-.22l.15.22Z"/>
    <path class="cls-1" d="M131.72,162.57v-.09s0,.07,0,.09Z"/>
    <path class="cls-1" d="M132.04,153.92s.03.07.03.11c0-.05,0-.1-.03-.11Z"/>
    <path class="cls-1" d="M128.43,136.13l.04.14s.01-.08-.04-.14Z"/>
    <path class="cls-1" d="M124.55,134.33s0,.01,0,.02c0,0,0-.01,0-.02Z"/>
    <path class="cls-1" d="M125.96,135.21s.08.02.12.02c-.04-.02-.1-.05-.12-.02Z"/>
    <path class="cls-1" d="M126.13,135.25h-.06s.05.01.06,0Z"/>
    <path class="cls-1" d="M109.06,143.05c-.01-.11-.09-.2-.15-.29l.15.29Z"/>
    <path class="cls-1" d="M132.64,168.64l-.02-.05s.02.03.02.05Z"/>
    <path class="cls-1" d="M108.38,143.01v-.08s0,.06,0,.08Z"/>
    <path class="cls-1" d="M130.18,137.64c.14.05.23.31.29.26-.09-.1-.17-.28-.29-.26Z"/>
    <path class="cls-1" d="M130.69,170.79l-.07-.03s.05.03.07.03Z"/>
    <path class="cls-1" d="M108.38,143.01v.1s.02-.02.03-.03c-.01-.02-.02-.04-.03-.06Z"/>
    <path class="cls-1" d="M123.08,162.66h0s.02,0,.03,0h-.03Z"/>
    <path class="cls-1" d="M122.59,162.15s.09.05.13.07c-.06-.05-.1-.07-.13-.07Z"/>
    <path class="cls-1" d="M108.91,142.75l-.09-.17c.02.06.05.12.09.17Z"/>
    <path class="cls-1" d="M116.95,157.24l.05.04s-.04-.04-.05-.04Z"/>
    <path class="cls-1" d="M132.1,153.38l.02-.06s-.03,0-.02.06Z"/>
    <polygon class="cls-1" points="133.9 158.78 133.9 158.78 133.9 158.78 133.9 158.78"/>
    <path class="cls-1" d="M133.81,158.49c-.02.09.03.21.09.28,0-.09-.01-.17-.09-.28Z"/>
    <path class="cls-1" d="M133.85,159.38s0-.02,0-.03c0,.01,0,.02,0,.03Z"/>
    <polygon class="cls-1" points="134.19 153.67 134.18 153.67 134.19 153.67 134.19 153.67"/>
    <path class="cls-1" d="M134.16,154.81s-.03.05-.04.08c.02-.02.03-.04.04-.08Z"/>
    <polygon class="cls-1" points="134.15 162.13 134.14 162.13 134.15 162.14 134.15 162.13"/>
    <path class="cls-1" d="M136.42,172.43c.04-.05.07-.08.07-.1.07-.09.18-.57.79-1.4-.15-.23-.28-.43-.4-.63-.14-.15-.28-.31-.4-.47-.09-.14-.18-.28-.26-.43-.16-.3-.32-.59-.49-.9l.2-.05c-.12-.18-.21-.36-.29-.52-.02-.22.19.4.13.02l-.2-.18s-.07-.35-.11-.57c0-.09-.02-.22.15.07-.14-.43-.2-.67-.29-1.02-.05-.22-.2-.09-.21-.34.05-.06.06.08.13.04-.02-.75-.57-.77-.6-1.49l.04.06c-.07-.11-.1-.34-.13-.34-.19.12.13.11.04.35-.17,0-.13-.26-.26-.22.04-.18-.07-.26-.1-.41.07-.26-.04-.62.07-.82-.07-.12-.25-.24-.28-.51.12-.2.13.03.16-.23l-.1-.03c0-.21.03-.18.08-.18-.01-.23-.15-.18-.1-.47l.11.15c-.05-.21-.04-.3-.04-.59.06,0,.06.12.05.21.14-.17-.08-.27-.07-.36-.04.03-.05.23-.16.14,0-.15-.15-.31-.03-.42l.1.16c-.09-.31-.13-.16-.1-.52,0,.02.03,0,.05.02-.14-.22-.02-.52-.01-.85l.03.06c-.03-.13-.13-.21-.12-.28-.06.19-.09.14-.18.16.16-.25-.19-.39-.09-.8.06,0,.13.11.06.22.17.14.31.16.39.41-.04-.15-.06-.34.01-.3l-.16-.05c0-.09,0-.17,0-.24-.1-.04-.17.19-.23-.03-.05-.25.16-.13.09-.17-.06-.34-.17-.14-.11-.47.01.03.04.1.02.13.07-.23-.01-.58.18-.64.04.04.1.04.08.13h-.03c.13.26-.03-.22.14-.14-.1.01-.07-.32-.04-.46l-.12.04c-.33-.51.23.03.2-.46-.07-.32-.04.12-.11-.08.03-.21.14-.29.1-.6.05-.08.12-.26.25-.27-.04-.19.08-.57-.04-.68-.12.32.12.33-.06.7l-.12-.11c.02-.26-.03-.6.02-.78-.03.04-.06.05-.09.03-.03-.38-.16-.49-.1-.85.12-.04.09.17.09.32.1-.23.02-.24.07-.61.1-.02-.01.25.08.29l-.02-.41h.02c-.17-.06.03-.31-.02-.56.02-.59-.21-.68-.34-1.01.05-.09.09-.11.13-.07-.08.14-.02.12.03.17-.01-.2.17-.43.24-.32-.05-.32-.09.11-.14-.08l.02-.43c-.09.05-.11.2-.17-.02-.02-.19,0-.28,0-.53.04.04.13-.08.13.11.03-.12.04-.31-.05-.38-.08.27-.08-.44-.21-.24l.07-.27c0,.06.06.07.04.16.13-.08-.04-.22-.06-.32.02-.1.03-.34.08-.37-.04-.08-.02-.3.05-.34-.03-.13-.09,0-.13-.04v-.44c.06-.03.27-.08.3-.01-.08-.16-.22-.05-.23-.3.15.13.09-.34.27-.14.09-.15.06-.56,0-.79-.13-.13-.04.25-.16.25-.1-.63-.42-.64-.42-1.1l-.02.12c-.1-.28-.09-.25-.21-.4.15.06.35-.38.23-.85-.08-.03-.09.29-.21.23l-.08-.31s.04,0,.06.04c-.1-.27.09-.56-.09-.6l.14-.33-.06.13c-.08-.02-.17-.33-.21-.39-.14-.3-.13-.43-.08-.63-.04.07-.13.24-.22,0,.22-.06-.06-.55.05-.57-.04-.1-.03-.3-.12-.28l.14-.03c-.2.04-.31-.33-.45-.58.28-.04-.14-.29.04-.5-.19.02-.26-.46-.44-.43-.1-.2.06-.25.09-.33l-.11-.07c.03-.14-.14-.53-.22-.78l-.26-.13.02-.11c-.05-.01-.17-.17-.16-.04l-.05-.12c-.16.08-.14-.13-.34-.3,0-.06.04-.07.09-.04-.07-.11.04-.11.05-.2,0,.1-.51-.21-.4.12-.05.06-.2-.08-.24-.2l.09-.15-.23-.02c-.13-.14-.09-.27-.17-.4.1.12.46.11.21-.23.15.17.28.2.38.28-.05-.07-.06-.12.08-.05-.24-.24-.15-.03-.35-.29.12-.07.12-.18-.03-.44.02.08.04.16.05.24-.02,0-.04,0-.06,0,.04.08.03.11,0,.16-.03-.06-.37-.19-.34-.28.03.39-.5-.33-.47-.08-.06,0-.2-.17-.16-.23.26.13,0-.26.09-.29-.1-.05.07.23-.07.16-.12-.11-.13-.26-.16-.35l.07.03-.13-.23c-.08.02.08.26-.11.12-.02-.06-.21-.21-.16-.24.15,0,.18-.14.34-.02-.11-.12-.52-.47-.45-.22l-.14-.14c.05.13.23.44-.07.19l.02-.02-.27-.1-.04-.13s-.08.03-.15-.04c0-.05-.05-.13,0-.17-.24-.17-.26-.1-.32-.09-.13-.09-.16-.15-.05-.17-.16-.16-.49-.37-.58-.51-.29-.11.04.06-.17.05-.07-.37-.81-.6-1.26-.78.03.25-.14-.03-.3.12.13-.02-.36-.33.06-.23l-.25-.08c-.12-.18.44.08.25-.18-.29-.11-.55.03-.86-.14.16-.11-.28-.03-.14-.17.09-.03.18.01.28.03l-.05-.05c-.63-.24-.24.12-.6.13-.39-.08-.28-.19-.28-.27-.06-.04-.26-.06-.37-.04.26-.05.43.18.29.26-.14-.21-.58-.12-.69-.07.52.29.38.08.85.38.08-.04.11-.19.39-.04-.21.02-.01.09.03.13-.03-.11.22.03.32.02.06.1-.24.15.04.27l.13-.19c.1.08-.1.13.16.18-.17.06-.02.17-.36.09.32.31.61.14.95.19-.04,0-.05.02-.09.03.09-.03.2.03.29.07.17.14-.19,0-.17.09l.3.15s0,.02,0,.02c.09.02.18.04.18.1-.12.01-.19.06-.28.08l.38.03c-.07.04.19.25-.05.17.15.08.3.17.45.25l-.04.15c.12.04.14.02.02-.07.13.11.79.24.54.42.39.15.49.27.9.56-.37-.15.2.42-.13.19.13.2.28.11.42.23.08.17-.08.21-.24.12l.2.11-.02.02.19.08c.08.2-.08.13.05.29l.13-.05.04.15c0-.08.11,0,.21.11l-.02.02.13.12c-.17-.09.08.15-.04.14.09.12.1.12.29.33l.04-.09c.28.25-.1.09.07.34l.07-.08c.11.44.5.53.57.87-.12-.14-.19-.04-.16-.05.18.21.39.59.62.79-.08.16-.11.2-.03.48.1.18.12.2.23.23.03.21.27.51.18.57.1,0,.05.17.16.25l-.03.04.09-.06c-.08.42.35.52.28.93l-.05-.05.09.13s-.08-.01-.14,0c.07.22.14.44.19.67l.04-.15c.05.14.17.21.16.39-.22-.23.06.23-.04.3l-.08-.13q.06.19.16.15c.1.25-.15.22.01.44l-.03-.17c.05-.06.16.04.18.16,0,.03-.04.12-.07.04.09.2.1.52.15.61-.01.12-.09.1-.13.04.17.43.02.2.18.64h-.06s.09.15.09.15l-.09.24.06-.09c.03.15.08.23.08.41l-.09-.06c.1.41-.09.5.08.89-.01.03-.05-.03-.06-.06.17.36-.13.29.07.65-.03-.02-.06.02-.09,0l.07.17h-.12s.18.12.18.12l-.11.11.06.06c-.21.19-.03.44-.19.7l.14-.05c.33.62-.13,1.45,0,2.21h-.12s.13.3.13.3c-.09.17-.1-.1-.16-.05.06.34.17.14.19.54-.08.2-.08-.07-.12-.17.05.37.1.92.02,1.19.02,0,.04.02.04,0,.04.25-.02.58-.02.85-.05,0-.06-.08-.07-.15-.01.1-.05.23,0,.32l-.1-.11c-.03.21.05.62-.07.66.05-.02.13,0,.12.17-.18.09.05.5-.05.79-.04-.04-.04-.25-.05-.19-.05.15.02.28.07.41l-.07-.04.07.69c-.18.1,0,.65-.12.6-.02.25.09-.2.09.11-.08.08.03.28-.09.27v-.03s0,.22,0,.22l-.11-.14c.02.19.13.33.21.34-.07.18-.02.43-.13.51l-.03-.07c.04.51-.32.84-.13,1.24-.02.03-.04.03-.04-.04v.31s-.09-.07-.09-.07l.14.52h-.06c-.02.34.03.88.07,1.33l-.03-.07c.11.48-.03.47.06.83-.02-.01-.02-.02-.03-.04l.03.32-.06-.07c.14.23-.09.7,0,.54.07.13.16.36.24.39.04.35-.07.09-.09.32.03.26.13.29.13.64h-.06c.03.16.09.26.14.48l-.04-.06c.18.34-.09.49.21.73-.01.16.09.44-.03.46.17.45.3.79.46,1.22-.16.12.03.09.02.39l.09-.05c.07.21.06.21.05.26,0,.04-.03.07-.05.1-.04.05-.09.06-.04.12l-.14-.07.09.05.07.05c-.02.06-.05.07-.02.11.09.09.22.23.33.35.02.03.05.06.02.03l-.03-.03c.06.1,0,.12-.18-.05-.06-.08-.09-.12-.14-.19.14.2-.04-.01-.05-.02l.11.15c.09.16-.07-.03-.15-.16l.04.1.02.06s-.03-.05-.04-.07l.04.08-.12-.22s0,.07.03.23c-.03-.07-.08-.13-.06-.15l-.17-.14.03.07c.01.12-.07.15-.11.08.06-.06.02-.15.03-.23-.04.04,0,.1-.02.15-.05.05-.17.03-.17-.02l.04-.02s-.1-.07-.14-.14c-.05-.07-.1-.15-.19-.2-.21-.02-.29-.16-.35.02-.26-.1-.04-.16-.11-.21-.15,0-.47-.23-.47-.33-.26.15-.6-.45-.76-.29l-.14-.22s-.14.14-.31.06c-.12-.14-.03-.21-.05-.29l-.21.13c-.75-.7-1.95-1.25-2.77-2-.43-.23-1-.47-1.45-.82h.07s-.43-.35-.43-.35l.28.31c-.12-.05-.22-.07-.31-.14-.46-.42-1.07-.98-1.74-1.34-.54-.1-.13-.37-.61-.51.05,0,.08-.01.12-.01-.46-.24-.69-.38-1.18-.58.2-.16-.26-.2-.15-.27l-.1.05c-.05-.12-.24-.31-.16-.34l-.25-.05.05-.09c-.22-.19-.76-.54-.74-.8-.65-.36-1.47-1.17-2.08-1.85-.15-.03-.34-.22-.5-.36l-.06-.25c-.17-.13-.44-.19-.51-.38.01,0,.02,0,.04,0-.16-.14-.26-.33-.47-.41-.15-.18-.25-.4-.12-.42-.17.12-.3-.39-.3-.39,0,0-1.92-2.33-3.52-5.24-.81-1.45-1.55-3.03-2.11-4.43-.56-1.4-1.01-2.62-1.37-3.3-.11-.08-.22-.34-.32-.22-.07-.21.09-.33-.02-.35-.02.3-.27-.06-.35.24l-.05-.18c-.08-.03.12.24-.02.21l.19.02c0,.15-.03.24-.08.3.09.13.36.17.3.52l-.03-.09c.05.27-.09.19-.11.25v-.06c-.03.08-.04.16-.06.24.02-.18-.16-.44-.13-.29,0,.33.03-.09.09.15.04.15-.07.12-.13.13l.07.27c-.09,0-.03-.18-.1-.05l.16.32c-.2.11.18.34.02.55-.1-.23-.07.04-.14.02.04.2.11.4.17.59-.01.06-.11-.14-.07-.05-.03.13.1.17.12.23-.04.07.13.44-.02.47.02.43.22.12.27.51-.07.08-.12-.29-.15-.1l.16.38c-.05-.02-.16-.03-.19-.18.23,1.08.02,1.82.54,2.71-.04.17-.11-.07-.21-.13.44.62.21,1.06.52,1.62l.08-.03c.16.92.82,1.79,1.26,2.69v-.13c.13.07.26.26.38.38-.02.05-.22,0-.03.23,0-.07-.04-.19.01-.18.28.85,1.36,2.32,2.19,3.47,1.26,1.44,2.58,3.06,4.02,4.28-.21-.19.02-.26.14-.08.2.66.8.63,1.1,1.2.91.61,1.47,1.46,2.45,1.84l-.05.09c.09.13.17.1.3.18l-.02.02c.27.26.71.43.85.6l.08-.09c.19.12.04.14.26.22l-.04.04.28.06c-.14.15.51.36.6.54.26.13.75.36,1.1.63.01.13.45.42.71.65.57.33,1.39.8,2.09,1.26l.05-.12.19.1s0,.05-.04.05c.07.21.46.22.56.38-.03-.16-.12-.09-.23-.16-.12-.14.09-.17.26.01l-.02.02.18.02c-.04.1.07.21.03.31.63.34,1.14.43,1.76.83-.12.06.48.23.25.33.42.15.01-.18.26-.2.11.06.25.08.23.15-.07.01.03.15-.07.12l.37.18s-.08,0-.13,0c.97.39,1.67,1.06,2.56,1.39.04-.06-.35-.21-.31-.27.8.25.83.58,1.59.87l-.1.06c.19.03.24-.01.55.18.02,0,.05-.01.09-.01.07.08.05.14.02.21-.12-.04-.28-.12-.37-.13.1.05.25.13.4.2.08-.13.15-.27.04-.33.09-.16.22-.06.31-.09-.02-.03-.17.01-.14-.12.11-.03.23-.11.35-.2.12-.09.16-.11.23-.16.01.02.04.03.04.05.03-.16.13-.02.22-.18Z"/>
    <path class="cls-1" d="M134.21,153.52l-.02.15s.06,0,.08.08l-.06-.23Z"/>
    <path class="cls-1" d="M133.96,160.44s.02.04.03.05c0-.03-.02-.05-.03-.05Z"/>
    <path class="cls-1" d="M134.23,162.08c-.03-.11-.06,0-.08.05.02,0,.05,0,.08-.05Z"/>
    <path class="cls-1" d="M133.93,149.5s.03.04.05.04c-.02-.03-.04-.04-.05-.04Z"/>
    <path class="cls-1" d="M130.95,138.66s0,.03.01.05c0-.01,0-.03-.01-.05Z"/>
    <path class="cls-1" d="M131.14,139.3s.04.06.08.1c-.02-.05-.05-.08-.08-.1Z"/>
    <path class="cls-1" d="M133.98,152.19s.01.08.03.12c0-.06-.02-.1-.03-.12Z"/>
    <path class="cls-1" d="M131.32,139.5l.07.14s.01,0,.02,0l-.09-.13Z"/>
    <path class="cls-1" d="M130.84,138.49c.03.05.08.12.11.17-.02-.08-.06-.14-.11-.17Z"/>
    <path class="cls-1" d="M133.38,145.43v.02c.08.11.04.04,0-.02Z"/>
    <polygon class="cls-1" points="131.84 140.01 131.84 140.03 131.89 140.06 131.84 140.01"/>
    <path class="cls-1" d="M130.47,137.89s.04.04.07.05c-.01-.02-.02-.05-.05-.08,0,.02-.01.02-.02.03Z"/>
    <path class="cls-1" d="M133.01,143.07c-.05-.03-.09-.04-.11-.03.02.05.05.08.11.03Z"/>
  </g>
  <g>
    <path class="cls-1" d="M124.45,149.51s.03-.01.05-.02c-.02,0-.03.02-.05.02Z"/>
    <path class="cls-1" d="M124.03,148.13h.03s-.02,0-.03,0Z"/>
    <path class="cls-1" d="M124.74,150.31h-.01s.01.03.02.06v-.06Z"/>
    <path class="cls-1" d="M122.8,145.37v.02s0-.02,0-.02Z"/>
    <path class="cls-1" d="M123.51,147.02s-.03,0-.04,0c0,.01.01.02.04,0Z"/>
    <path class="cls-1" d="M123.98,151.25l.05-.06s-.05.04-.05.06Z"/>
    <path class="cls-1" d="M124.66,151.84h.01s-.01,0-.01,0Z"/>
    <path class="cls-1" d="M124.77,151.4s-.03,0-.04,0c0,0,.01.02.04,0Z"/>
    <path class="cls-1" d="M124.7,151.4h.02s-.01,0-.02,0Z"/>
    <path class="cls-1" d="M116.43,136.53s-.07,0-.12,0h.12Z"/>
    <path class="cls-1" d="M121.39,143.05h.03s-.02,0-.03,0Z"/>
    <path class="cls-1" d="M115.88,136.89v-.02s0,.02,0,.02Z"/>
    <path class="cls-1" d="M123.58,150.97c-.08.02-.02-.07-.09-.04.02.02,0,.08.09.04Z"/>
    <path class="cls-1" d="M118.71,144.1h-.01s.01,0,.01,0Z"/>
    <path class="cls-1" d="M115.88,136.89v.03s.02-.03.02-.03c-.01,0-.02,0-.02,0Z"/>
    <polygon class="cls-1" points="119.86 140.66 119.86 140.66 119.88 140.66 119.86 140.66"/>
    <path class="cls-1" d="M119.88,140.47h.04s-.02,0-.04,0Z"/>
    <path class="cls-1" d="M116.31,136.53h-.07s.04,0,.07,0Z"/>
    <path class="cls-1" d="M118.88,139.19h.02s0,0-.02,0Z"/>
    <path class="cls-1" d="M123.53,147.14s0,.01,0,.02c.02,0,.03-.01,0-.02Z"/>
    <polygon class="cls-1" points="121.26 147.22 121.26 147.22 121.26 147.22 121.26 147.22"/>
    <path class="cls-1" d="M121.37,147.22s-.05-.02-.11,0c0,.02.03.02.11,0Z"/>
    <path class="cls-1" d="M121.23,147.09h0s0,0,0,0Z"/>
    <polygon class="cls-1" points="121.71 148.18 121.72 148.18 121.71 148.18 121.71 148.18"/>
    <path class="cls-1" d="M121.58,147.99s.02-.02.02-.03c-.01.01-.02.02-.02.03Z"/>
    <polygon class="cls-1" points="120.74 146.71 120.74 146.71 120.74 146.71 120.74 146.71"/>
    <path class="cls-1" d="M119.1,145.14c.16.16.44.32.52.53.16-.04.2.01.26.05l-.17.12h.09c-.04.07-.06,0-.1.07l.12-.05c-.06.04.04.15-.14.15l.12.19s.16-.07.15,0c-.04.04-.05,0-.1.05-.04.22.44-.05.44.13h-.03c.06,0,.08.04.11.03.16-.13-.11.04-.03-.07.15-.09.11,0,.22-.07-.03.06.06.03.09.05-.06.1.04.13-.05.23.06,0,.22-.07.26-.03-.09.11-.12.06-.13.13l.09-.05s-.02.06-.06.08c.02.04.14-.04.12.05l-.1.02c.06.02.05.04.08.1-.05.03-.06,0-.06-.02-.11.11.09.02.08.04.03-.03.03-.08.12-.11,0,.04.15-.01.06.07l-.1.02c.1.01.13-.04.13.05,0,0-.03.02-.05.02.13-.03.07.09.1.15h-.03s.13-.02.13,0c.03-.06.06-.07.14-.12-.11.13.21-.03.17.09-.05.03-.12.05-.08,0-.16.06-.29.14-.38.13.05,0,.09.03.03.06l.14-.07s.01.03.02.05c.09-.05.12-.12.2-.11.07.02-.12.11-.06.08.09.03.16-.06.15.02-.01,0-.05,0-.04,0-.03.08.09.09-.07.2-.04.02-.09.04-.09.02h.03c-.15.01.06,0-.1.08.09-.06.1.01.1.05l.09-.07c.35-.09-.2.12-.11.18.1.01.02-.04.11-.05,0,.05-.08.12,0,.14-.03.04-.07.1-.18.17.07,0,.01.13.13.08.06-.11-.15.01-.05-.14l.12-.05s.11.08.09.13c.02-.02.04-.04.07-.05.08.04.2,0,.21.08-.1.07-.1.02-.13,0-.06.09.02.05.03.13-.09.06-.02-.05-.11,0l.07.05h-.02c.15-.07.02.07.09.09.06.1.27,0,.42-.01-.03.04-.07.07-.11.08.05-.06,0-.03-.04-.02.04.03-.1.16-.17.18.08.03.07-.07.13-.06l.04.08c.07-.05.07-.09.15-.09.04.02.03.05.06.09-.04.02-.11.08-.12.05-.02.04,0,.07.08.04.04-.09.11.04.21-.07l-.04.09s-.06.02-.05,0c-.11.08.06.02.08.03-.01.03,0,.08-.04.11.04,0,.04.05-.02.09.04,0,.08-.04.12-.06l.03.08c-.06.04-.23.15-.26.15.08,0,.19-.1.21-.05-.14.05-.06.11-.23.16-.08.08-.03.15.02.17.11-.03.03-.07.13-.13.1.09.38-.07.38.04l.02-.04c.09.02.07.02.17,0-.13.06-.3.25-.22.32.07-.03.09-.12.2-.16l.05.04s-.03.02-.05.02c.07.02-.11.19.05.12l-.15.16.07-.07c.07-.03.12.02.15.01.1.02.06.07,0,.15.05-.04.15-.13.19-.1-.2.12-.02.14-.13.2.01.02-.03.08.05.04l-.13.07c.18-.1.21-.03.27,0-.24.13.05.04-.15.19.17-.08.12.05.26-.02.03.03-.12.12-.17.16l.07-.02c-.06.06-.03.14-.06.22l.17-.04-.06.05s.08,0,.12-.04v.03c.16-.09.06,0,.16.01-.02.02-.06.04-.08.05.01.02-.07.06-.12.1.03-.04.32-.08.36-.18.06-.04.13-.03.11,0l-.13.09.16-.06s-.04.09-.04.12c-.02-.02-.3.09-.26.16-.04-.03-.13,0-.17,0,0,.02,0,.03-.08.04.08.03.1-.03.15.01-.13.07-.16.11-.17.18l.07-.09s.03-.01.04-.01c0-.02.02-.04.07-.07,0,.01.19-.02.12.03.16-.17.21.01.3-.09.04-.01.07.02,0,.06-.12,0-.12.12-.22.16.05,0,.07-.09.13-.09.02.02-.04.09-.07.13h-.03s-.03.08-.03.08c.07-.03.08-.1.14-.08-.02.03.03.05-.02.07-.1.03-.2.11-.24.09.02.02.09.1.19,0v.04c.06-.05.12-.16.17-.11h-.03s.12,0,.12,0l-.05.06s.07-.03.07,0c-.04.03-.04.05-.09.08.03.05.1,0,.14,0,.02.02,0,.05-.08.08,0,.05.06.11,0,.17.09.02.02-.03.12-.04-.2.17,0,.22.08.28.18-.13.03.01.22-.07-.07.02-.1.16-.2.12l.04.03c-.09.09-.12-.03-.24.1.03.05.26-.04.23.06-.15.06.07.02-.09.09-.06.02-.05,0-.07-.02l-.02.03c.02.13.18-.06.3-.05.05.06-.08.11-.14.15-.02.03.02.05.06.04-.11,0,.04-.12.14-.15-.14.12.04.11.11.09.11-.19-.03-.07.1-.26-.06.02-.19.1-.17,0,.09,0,.08-.05.09-.07-.07.06-.05-.02-.1-.02.06-.05.2-.07.21-.14l-.19.1s.14-.07.07-.09c.11-.03.15-.09.21-.05.12-.16-.15-.06-.25-.08.01,0,.04-.01.06-.02-.06.02-.07,0-.09-.02.02-.06.1-.02.15-.06l-.04-.06s.01,0,.01,0c-.03,0-.06,0-.02-.04.07-.02.14-.04.19-.06h-.17c.07-.02.08-.1.15-.08l-.08-.08.12-.08s-.06,0-.06.04c.01-.05-.3-.02-.04-.14-.15-.02-.12-.07-.23-.12.16,0,.1-.16.2-.12.03-.07-.11,0-.15-.03.04-.06.17-.12.23-.11h-.08s.03-.02.03-.02h-.09c.05-.07.12-.07.12-.12l-.12.06.05-.06s-.08.03-.11,0h.03s-.04-.04-.04-.04c.09,0,0-.04.1-.08-.01-.03-.01-.03-.06-.07l-.07.05c-.11-.03.11-.07.09-.13l-.09.05c.1-.16-.16-.09-.1-.2.04.02.14-.05.11-.03-.06-.03-.08-.13-.22-.12.12-.09.15-.12.18-.21-.03-.03-.05-.03-.13,0,.03-.07-.09-.09,0-.15-.08.03,0-.04-.08-.03l.04-.03-.09.05c.16-.18-.18-.05-.04-.22h.03s-.05-.01-.05-.01c.04-.03.07-.03.12-.06l-.06-.14-.05.06s-.12,0-.09-.05c.16-.02-.02-.05.08-.11h.05s-.03-.03-.12.03c-.06-.03.15-.13.03-.12v.04s-.12.06-.13.03c.01-.01.04-.05.06-.04-.06-.02-.05-.11-.09-.1.02-.04.08-.07.11-.07-.13-.04,0-.05-.13-.09l.05-.03h-.08s.08-.1.08-.1l-.06.05s-.07-.02-.06-.07l.08-.03c-.09-.05.07-.16-.08-.18.01-.01.04-.02.06-.02-.16,0,.1-.13-.08-.12.03-.01.05-.04.08-.05h-.07s.1-.06.1-.06l-.16.06.09-.08-.06.02c.17-.15,0-.11.12-.24l-.12.08c-.33.04-.01-.35-.21-.42l.1-.06h-.15c.06-.07.1-.02.14-.06-.09-.03-.16.06-.23,0,.04-.08.08-.03.13-.03-.09-.04-.2-.1-.18-.19-.01,0-.03.01-.04.02-.07-.02-.06-.1-.1-.15.05-.03.06-.02.08-.01,0-.02.01-.06-.04-.05l.1-.03s-.13-.07-.03-.14c-.04.03-.11.07-.13.04.14-.11-.12-.05-.07-.15.04-.02.07.02.07,0,.02-.05-.06-.03-.12-.03l.07-.03-.16-.07c.14-.11-.09-.1.02-.16-.02-.05-.04.08-.1.03.05-.05-.06-.03.04-.09h.02s-.03-.04-.03-.04l.11-.03s-.15.01-.23.06c.03-.06-.04-.08.04-.15h.03c-.09-.07.18-.31-.03-.28.01-.01.04-.03.04-.02l-.03-.06.08-.03-.17-.02.05-.03c-.02-.07-.1-.15-.16-.22h.03c-.13-.04,0-.11-.09-.14.01,0,.02,0,.02,0l-.04-.05.06-.02c-.13.02.07-.2,0-.12-.06,0-.14,0-.21.03-.04-.06.05-.05.07-.12-.02-.05-.11,0-.1-.09l.05-.03s-.07-.02-.1-.05h.03c-.14,0,.1-.17-.15-.09.02-.05-.04-.08.06-.14-.11-.04-.18-.08-.27-.13.15-.11-.02-.01.04-.11l-.08.06c-.08-.1.05-.36-.06-.46l.08-.06-.11.04c-.04-.15-.11-.34-.18-.45-.07,0-.2,0-.21-.06h.02c-.11-.06-.21-.14-.22-.27.04-.02.06-.04.09-.05-.11.04-.04-.06-.05-.08l-.05.07c-.1.02-.05-.07,0-.12h-.12s.02,0,.03-.02l-.05.02.1-.1s-.1-.04-.22.01c.03-.03.04-.09.08-.07l-.07-.19-.02.05c-.08.06-.17.04-.15,0,.09-.01.12-.08.18-.13-.06,0-.06.07-.12.09-.08,0-.14-.03-.11-.07h.05c-.06-.02.08-.14.05-.17-.09.01-.04-.06-.19.05-.06-.03.09-.08.09-.11-.09.02-.08-.08-.02-.13-.23.11,0-.18-.2-.07l.08-.11s-.16.09-.2.07c.03-.07.12-.11.16-.15l-.19.1c.08-.3-.2-.45-.17-.75-.1-.06-.25-.12-.29-.23h.03s-.02-.14-.02-.14l-.03.13s-.08,0-.09-.03c0-.16,0-.37-.19-.44-.26.05.14-.18-.06-.16.02,0,.06-.02.08-.03-.13-.04-.2-.07-.38-.08.21-.13-.04-.06.07-.12l-.09.05c.04-.05.02-.11.09-.15l-.13.03.08-.06c-.03-.06-.17-.12-.02-.27-.21-.04-.32-.28-.4-.46-.08.02-.12-.02-.16-.05l.07-.11c-.06-.02-.21.03-.17-.05.01,0,.02-.01.03-.01-.05-.02-.02-.1-.14-.07-.02-.05,0-.12.1-.17-.17.11-.04-.11-.04-.11,0,0-1.1-2.44-2.37-2.31-.09.04-.18.03-.26.12-.06-.02.07-.14-.01-.08-.02.09-.22.14-.29.26l-.04-.02c-.06.04.1,0-.01.06l.16-.1s-.03.08-.07.13c.08-.02.29-.15.24-.03h-.02s-.08.09-.09.12h0s-.05.08-.05.08c.03-.07-.13-.03-.1,0,0,.09.03-.04.07-.01.03.02-.06.07-.11.1l.04.04c-.07.05-.02-.03-.08.04h.12c-.17.14.13,0-.02.15-.07-.01-.06.05-.12.08l.08.1s-.07.01-.05.02c-.04.05.07,0,.07.01-.04.04.06.08-.06.16-.03.13.17-.08.15.04-.07.06-.05-.04-.11.04l.08.05s-.13.07-.13.03c.04.25-.27.62-.06.72-.07.08-.07.02-.14.05.2.04-.07.3.02.4l.07-.05c-.12.3.14.38.16.61l.04-.05c.08-.03.12,0,.17.01-.03.03-.17.09-.1.11.02-.03.03-.07.07-.08-.09.27.16.53.23.83.27.27.36.71.62.99-.04-.04.15-.14.14-.08-.23.3.16.13.03.37.22.11.06.45.41.46l-.08.06c-.02.05.04.02.07.04l-.02.02c.01.08.15.1.13.16l.1-.06s-.06.07.02.07l-.05.03.12-.02c-.17.11.06.11,0,.19.06.03.19.07.21.17-.08.07-.02.16-.02.24.1.1.23.24.29.4l.11-.07.03.03s-.03.03-.05.03c-.11.11.09.06.04.14.09-.08,0-.04-.01-.06.03-.06.16-.1.13-.03h-.02s.08,0,.08,0c-.08.06-.11.11-.19.17.1.11.3.09.34.25-.1.05.08.07-.1.16.11.03.13-.1.27-.14.01.02.07.02.01.06-.05.02-.09.08-.12.08l.05.04s-.04.02-.05.02c.16.04,0,.25.16.28.06-.03,0-.05.06-.08.18.01-.06.15.09.18l-.09.04c.08,0,.15-.04.12.05-.09.07-.11.01-.17.02.02.03.09.1.17.02.06.02-.02.09-.04.12.02-.01.04-.08.1-.08-.02.09.03.17.06.23-.02.01-.06.04-.07.05.16-.03-.06.1,0,.16Z"/>
    <path class="cls-1" d="M121.71,148.22v-.04s-.05.03-.08.03h.08Z"/>
    <path class="cls-1" d="M121.03,146.95s-.02,0-.03,0c0,0,.02,0,.03,0Z"/>
    <path class="cls-1" d="M120.67,146.76s.05-.03.07-.05c-.02.01-.04.03-.07.05Z"/>
    <path class="cls-1" d="M122.4,148.76s-.03,0-.05.02c.02,0,.04-.01.05-.02Z"/>
    <path class="cls-1" d="M123.46,150.75s0,0,.01-.02c0,0,0,.01-.01.02Z"/>
    <path class="cls-1" d="M123.56,150.55s0-.01-.03-.01c0,.01.01.02.03.01Z"/>
    <path class="cls-1" d="M122.08,148.31s-.02,0-.04,0c0,0,.03,0,.04,0Z"/>
    <polygon class="cls-1" points="123.49 150.53 123.49 150.49 123.47 150.5 123.49 150.53"/>
    <path class="cls-1" d="M123.47,150.79s-.01-.03,0-.04c-.02.03-.01.04,0,.04Z"/>
    <path class="cls-1" d="M122.95,149.4h0c-.06,0-.03,0,0,0Z"/>
    <polygon class="cls-1" points="123.25 150.51 123.25 150.5 123.22 150.51 123.25 150.51"/>
    <path class="cls-1" d="M123.49,150.93s-.01,0-.03,0v.02s.02-.01.03-.02Z"/>
    <path class="cls-1" d="M123.03,149.9s.07-.03.09-.04c0,0-.03,0-.09.04Z"/>
  </g>
</svg>