<?xml version="1.0" encoding="utf-8"?>
<!-- Generator: Adobe Illustrator 28.1.0, SVG Export Plug-In . SVG Version: 6.00 Build 0)  -->
<svg version="1.1" id="Layer_1" xmlns="http://www.w3.org/2000/svg" xmlns:xlink="http://www.w3.org/1999/xlink" x="0px" y="0px"
	 viewBox="0 0 2628.48 2982.05" style="enable-background:new 0 0 2628.48 2982.05;" xml:space="preserve">
<style type="text/css">
	.st0{fill:#FFFFFF;stroke:#000000;stroke-width:7;stroke-miterlimit:10;}
	.st1{fill:#FFFFFF;stroke:#000000;stroke-width:16;stroke-miterlimit:10;}
	.st2{fill:#FFFFFF;}
	.st3{fill:none;stroke:#000000;stroke-miterlimit:10;}
	.st4{stroke:#000000;stroke-miterlimit:10;}
</style>
<g>
	<path d="M2105.52,1037.18c-42.15-132.99-102.51-252.47-179.41-355.11c-77.06-102.84-166.85-183.62-266.88-240.09
		c-103.82-58.6-214.14-88.32-327.9-88.32s-224.08,29.72-327.9,88.32C903.4,498.46,813.6,579.24,736.55,682.08
		c-76.9,102.64-137.27,222.11-179.41,355.11c-43.6,137.56-65.7,283.67-65.7,434.26c0,150.59,22.1,296.7,65.7,434.26
		c42.15,132.99,102.51,252.47,179.41,355.11c77.05,102.84,166.85,183.62,266.88,240.09c103.82,58.61,214.14,88.32,327.9,88.32
		s224.08-29.72,327.9-88.32c100.03-56.47,189.83-137.25,266.88-240.09c76.9-102.64,137.27-222.11,179.41-355.11
		c43.6-137.56,65.7-283.67,65.7-434.26C2171.22,1320.85,2149.12,1174.75,2105.52,1037.18z M1331.33,2570.22
		c-110.45,0-217.62-28.89-318.56-85.87c-97.73-55.17-185.55-134.21-261.02-234.94c-75.62-100.93-135.01-218.5-176.51-349.45
		c-43.01-135.7-64.81-279.88-64.81-428.52s21.81-292.82,64.81-428.52c41.5-130.95,100.88-248.53,176.51-349.45
		c75.47-100.72,163.29-179.77,261.02-234.94c100.93-56.98,208.11-85.87,318.56-85.87s217.62,28.89,318.56,85.87
		c97.73,55.17,185.55,134.21,261.02,234.94c75.62,100.92,135,218.5,176.51,349.45c43.01,135.7,64.81,279.88,64.81,428.52
		s-21.81,292.82-64.81,428.52c-41.5,130.95-100.89,248.53-176.51,349.45c-75.47,100.72-163.29,179.77-261.02,234.94
		C1548.95,2541.33,1441.77,2570.22,1331.33,2570.22z"/>
	<path d="M2047.61,1878.45c40.31-128.93,60.75-265.87,60.75-407s-20.44-278.07-60.75-407c-38.97-124.66-94.8-236.65-165.92-332.86
		c-71.28-96.42-154.34-172.17-246.89-225.12c-96.08-54.98-198.18-82.85-303.48-82.85s-207.4,27.88-303.48,82.85
		c-92.55,52.96-175.61,128.7-246.89,225.12c-71.12,96.21-126.94,208.2-165.92,332.86c-40.31,128.93-60.75,265.87-60.75,407
		s20.44,278.07,60.75,407c38.97,124.66,94.8,236.65,165.92,332.86c71.28,96.43,154.34,172.17,246.89,225.12
		c96.08,54.98,198.18,82.85,303.48,82.85s207.4-27.88,303.48-82.85c92.55-52.96,175.61-128.7,246.89-225.12
		C1952.81,2115.1,2008.64,2003.11,2047.61,1878.45z M1331.33,2500.28c-101.94,0-200.87-27.03-294.04-80.34
		c-90.25-51.64-171.35-125.63-241.05-219.93c-69.86-94.51-124.72-204.6-163.06-327.24c-39.74-127.09-59.88-262.12-59.88-401.33
		s20.15-274.24,59.88-401.33c38.34-122.63,93.2-232.73,163.06-327.24c69.7-94.29,150.8-168.29,241.05-219.93
		c93.17-53.31,192.1-80.34,294.04-80.34s200.87,27.03,294.04,80.34c90.25,51.64,171.35,125.63,241.05,219.93
		c69.86,94.51,124.72,204.6,163.06,327.24c39.74,127.09,59.88,262.12,59.88,401.33s-20.15,274.24-59.88,401.33
		c-38.34,122.63-93.2,232.73-163.06,327.24c-69.7,94.29-150.8,168.29-241.05,219.93C1532.2,2473.25,1433.27,2500.28,1331.33,2500.28
		z"/>
	<path d="M1700.55,1166.89c-2.67-2.59-4.74-2.15-6.02-1.31c-1.14,0.76-4.64,2.98-11.36,7.17l-0.2,0.15
		c-7.04,6.27-14.44,11.87-22,16.65c-7.69,4.85-16.34,9.88-25.71,14.95c-9.46,5.14-20.91,10.36-34.03,15.52
		c-14.35,5.67-29.9,11.93-46.2,18.6c-19.33,7.74-36.27,14.51-50.83,20.33l-18.16,7.26c-17.92,7.17-33.11,14.05-45.14,20.47
		c-9.44,5.05-17.87,10.14-25.12,15.2c6.73-12.81,14-27.13,21.64-42.67c11.09-22.58,23.19-46.59,35.98-71.36
		c12.59-24.4,24.7-48.43,36.01-71.42c11.18-22.77,20.87-42.76,28.8-59.41c7.59-15.97,13.4-27.99,16.79-34.77l0.04-0.09
		c4.21-10.12,6.44-15.49,7.21-17.42c1-2.52,0.5-4.92-1.46-6.93c-2.83-3.72-5.61-5.07-8.3-4.01c-2.27,0.91-5.41,3.8-9.6,8.84
		c-7.02,8.59-20.38,17.95-39.71,27.81c-19.52,9.97-48.75,22.66-86.87,37.74c-30.04,12.02-51.77,20.79-68.4,27.6
		c-17.49,7.15-32.48,14.04-44.54,20.46c-12.04,6.43-22.4,12.94-30.8,19.33c-8.46,6.46-16.79,13.77-24.75,21.73
		c-15.64,15.64-23.24,28.15-23.24,38.26c0,5.84,0.66,8.03,2.51,8.38c1.75,0.33,3.3-1.02,6.41-9.07
		c3.88-10.88,14.22-23.37,30.74-37.15c16.65-13.86,35.11-26.1,54.86-36.38c4.11-1.64,12.77-5.27,25.76-10.78
		c13.33-5.64,28.06-11.69,43.76-17.98c34.17-13.51,61.04-24.62,79.85-33.02c18.84-8.42,33.6-15.5,43.89-21.05l0.12-0.07
		c2.55-1.7,4.69-3.06,6.54-4.17c1.88-1.14,3.67-2.13,5.29-2.94l0.12-0.06c-0.69,1.23-1.38,2.55-2.09,3.96
		c-1.64,2.46-3.23,5.45-4.87,9.14c-1.63,3.64-3.62,7.42-5.94,11.28c-4.37,7.84-9.78,17.53-16.79,29.99
		c-7.17,12.75-15.04,27.29-23.42,43.23c-9.2,17.53-17.83,34.22-26.4,51.01c-9.26,18.11-17.95,35.68-25.78,52.15
		c-8.71,15.82-18.61,34.81-29.42,56.44c-10.63,21.26-20.11,39.41-28.14,53.9c-2.57,4.29-5.4,9.36-8.43,15.06
		c-3.31,6.2-6.05,11.08-8.38,14.96c-3.5,6.12-8.41,14.57-13.19,22.79c-4.76,8.15-10.01,17.08-15.61,26.55
		c-7.31-3.13-13.97-5.41-19.82-6.8c-6.91-1.62-15.3-2.44-24.94-2.44c-16.85,0-38,4.06-62.87,12.08
		c-43.17,14.39-84.12,38.51-121.7,71.69c-37.58,33.18-67.98,73.1-90.34,118.64c-22.39,44.77-34.95,90.99-37.35,137.38
		c-2.41,46.51,8.98,89.6,33.86,128.11c26.49,38.53,69.17,61.35,126.86,67.81c2.16,0.82,5.07,1.23,8.76,1.23
		c3.66,0,8.09-0.4,13.35-1.2c62.47-2.83,127.57-38.21,193.5-105.14c65.79-66.78,134.3-166.91,203.63-297.6
		c6.48-12.17,12.75-24.29,18.62-36.03c5.94-11.88,12.41-25.62,19.23-40.85c6.25-13.98,13.7-30.46,22.79-50.38
		c8.24-18.05,17.86-39.64,29.39-65.98c6.04-12.97,11.54-24.95,16.81-36.61c5.72-12.69,10.98-24.81,15.62-36.04
		c4.84-11.67,9.47-22.14,13.77-31.12c4.53-9.49,7.88-16.77,10.22-22.23c9.57-21.52,15.44-36.13,17.47-43.41
		C1704.96,1175.06,1704.2,1169.7,1700.55,1166.89z M1476.28,1596.86c-10.44,19.26-20.52,37-29.93,52.68
		c-5,7.5-10.86,16.59-17.42,27.03c-6.87,10.91-13.93,21.8-20.98,32.36c-7.86,11.79-15.35,22.86-20.99,31.18
		c-6.78,9.95-12.62,18.21-17.37,24.56c-34.15,46.85-67.57,83.69-99.32,109.51c-31.72,25.75-64.66,44.44-97.92,55.53
		c-16.57,5.51-33.58,8.11-50.48,7.72c-16.97-0.41-33.57-3.41-49.33-8.92c-15.77-5.52-30.36-13.32-43.38-23.18
		c-13.01-9.87-23.58-21.63-31.41-34.96c-18.94-32.37-26.14-68.38-21.4-107.09c3.96-43.61,16.42-86.62,37.04-127.85
		c20.62-41.24,49.17-79.04,84.89-112.38c22.98-22.18,49.11-41.48,77.68-57.36c28.5-15.83,55.78-25.86,81.11-29.83
		c7.59-1.26,16.05-1.9,25.22-1.9c2.25,0,4.55,0.04,6.88,0.11c6.98,0.24,13.07,0.97,18.12,2.17c-4.38,7.22-8.71,14.16-12.87,20.66
		c-6.32,9.87-11.57,18.15-15.58,24.57c-19.03,28.55-38.75,53.3-58.62,73.57c-19.76,20.15-38.6,34.79-56.03,43.52
		c-21.9,11.73-39.25,15.34-51.53,10.73c-3.77-1.51-7.6-4.6-11.41-9.17c-3.86-4.62-6.59-9.3-8.13-13.91l-0.08-0.2
		c-1.73-3.44-3.74-5.86-5.97-7.21c-1.48-0.89-2.74-1.05-3.74-0.48c-1.53,0.87-1.53,2.9-1.53,3.57c0,1.18,0.39,3.53,3.76,10.27
		c2.44,4.88,5.33,9.02,8.6,12.31c6.57,9,14.91,14.81,24.87,17.3c8.96,1.62,19.66,1.01,31.81-1.82c12.07-2.83,24.69-7.51,37.55-13.93
		c15.25-8.04,30.68-18.8,45.88-31.99c15.21-13.22,30.81-29.83,46.38-49.39c15.55-19.53,32.33-43.59,49.89-71.53
		c0.79-1.25,1.57-2.51,2.37-3.78c0.76,0.62,1.45,1.19,2.11,1.77c6.22,5.45,10.94,11.35,14.04,17.54c3.11,6.25,5.48,14.38,7.06,24.17
		c1.56,9.81,1.96,19.58,1.19,29.06c-1.6,22.98-6.21,45.25-13.71,66.19c-7.53,20.98-18.17,41.25-31.61,60.23l-0.06,0.1
		c-2.3,3.85-4.85,7.96-7.78,12.56c-2.75,4.31-4.9,7.25-6.4,8.75l-0.18,0.22c-1.61,2.4-4.79,6.17-9.46,11.22
		c-3.5,3.79-7.12,7.69-10.83,11.7l-4.16,4.49c-5.29,5.67-10.51,10.89-15.52,15.52c-5.15,4.74-9.35,8.35-12.46,10.69
		c-8.7,6.31-18.51,12.12-29.17,17.26c-10.63,5.11-21.69,9.74-32.82,13.73c-7.04,2.35-12.83,3.94-17.19,4.75
		c-4.37,0.78-10.53,1.18-18.33,1.18c-10.76,0-14.94-0.32-16.54-0.58c-2.12-0.37-3.82-1.21-5.19-2.58c-3.14-3.14-4.74-4.06-6.11-3.49
		c-0.38,0.16-1.25,0.68-1.25,2.16c0,3.03,2.71,6.1,8.51,9.68c5.34,3.28,10.57,5.37,15.53,6.2l0.25,0.02
		c5.67,0,13.62-0.99,24.28-3.03c10.41-2.01,22.17-5.05,35.01-9.06c18.44-6.43,33.89-13.75,45.93-21.77
		c12.02-8.02,25.83-20.2,41.02-36.18c5.63-5.65,10.71-11.13,15.08-16.29c4.31-5.1,7.31-8.5,8.91-10.11l0.18-0.21
		c20.75-30.33,35.95-57.89,45.16-81.9c9.22-24.09,13.9-49.7,13.9-76.13c0-35.64-10.63-62.73-31.59-80.52
		c14.7-24.2,30.67-52.19,47.5-83.24c2.49-4.99,6.94-13.4,13.25-25.01l0.29-0.25c16.65-13.86,35.11-26.1,54.86-36.38
		c3.9-1.56,12.27-4.98,26.34-10.78c13.55-5.57,28.08-11.63,43.17-17.99c18.5-7.24,34.65-13.7,48.02-19.21
		c13.33-5.48,25.27-10.74,35.47-15.63c10.42-5,19.05-9.12,26.39-12.6c7.64-3.62,14.74-7.47,21.09-11.44l8.34-4.17
		c2.52-1.26,5-2.7,7.36-4.29c1.07-0.71,2.14-1.34,3.21-1.89l-22.17,44.34c-15.89,29.37-30.22,57.24-42.61,82.83
		c-12.19,25.14-26.52,55.43-42.62,90.04c-8.79,19.96-18.47,40.73-28.77,61.74c-10.58,21.55-21.27,42.94-31.79,63.57
		C1497.57,1556.89,1486.88,1577.27,1476.28,1596.86z"/>
</g>
</svg>
